<svg width="1360" height="376" viewBox="0 0 1360 376" fill="none" xmlns="http://www.w3.org/2000/svg">
<path d="M0 12C0 5.37258 5.37258 0 12 0H768C774.627 0 780 5.37258 780 12V138C780 144.627 774.627 150 768 150H12C5.37258 150 0 144.627 0 138V12Z" fill="#F1F3F4"/>
<path d="M34.1 52V38H39.56C40.7867 38 41.8333 38.1933 42.7 38.58C43.5667 38.9667 44.2333 39.5267 44.7 40.26C45.1667 40.9933 45.4 41.8667 45.4 42.88C45.4 43.8933 45.1667 44.7667 44.7 45.5C44.2333 46.22 43.5667 46.78 42.7 47.18C41.8333 47.5667 40.7867 47.76 39.56 47.76H35.2L36.1 46.82V52H34.1ZM36.1 47.02L35.2 46.02H39.5C40.78 46.02 41.7467 45.7467 42.4 45.2C43.0667 44.6533 43.4 43.88 43.4 42.88C43.4 41.88 43.0667 41.1067 42.4 40.56C41.7467 40.0133 40.78 39.74 39.5 39.74H35.2L36.1 38.74V47.02ZM53.9136 41.3C54.7803 41.3 55.5403 41.4667 56.1936 41.8C56.8603 42.1333 57.3803 42.64 57.7536 43.32C58.1269 44 58.3136 44.86 58.3136 45.9V52H56.3936V46.12C56.3936 45.0933 56.1403 44.32 55.6336 43.8C55.1403 43.28 54.4403 43.02 53.5336 43.02C52.8536 43.02 52.2603 43.1533 51.7536 43.42C51.2469 43.6867 50.8536 44.08 50.5736 44.6C50.3069 45.12 50.1736 45.7667 50.1736 46.54V52H48.2536V37.16H50.1736V44.26L49.7936 43.5C50.1403 42.8067 50.6736 42.2667 51.3936 41.88C52.1136 41.4933 52.9536 41.3 53.9136 41.3ZM66.4069 52.12C65.3402 52.12 64.3935 51.8867 63.5669 51.42C62.7402 50.9533 62.0869 50.3133 61.6069 49.5C61.1269 48.6733 60.8869 47.74 60.8869 46.7C60.8869 45.6467 61.1269 44.7133 61.6069 43.9C62.0869 43.0867 62.7402 42.4533 63.5669 42C64.3935 41.5333 65.3402 41.3 66.4069 41.3C67.4602 41.3 68.4002 41.5333 69.2269 42C70.0669 42.4533 70.7202 43.0867 71.1869 43.9C71.6669 44.7 71.9069 45.6333 71.9069 46.7C71.9069 47.7533 71.6669 48.6867 71.1869 49.5C70.7202 50.3133 70.0669 50.9533 69.2269 51.42C68.4002 51.8867 67.4602 52.12 66.4069 52.12ZM66.4069 50.44C67.0869 50.44 67.6935 50.2867 68.2269 49.98C68.7735 49.6733 69.2002 49.24 69.5069 48.68C69.8135 48.1067 69.9669 47.4467 69.9669 46.7C69.9669 45.94 69.8135 45.2867 69.5069 44.74C69.2002 44.18 68.7735 43.7467 68.2269 43.44C67.6935 43.1333 67.0869 42.98 66.4069 42.98C65.7269 42.98 65.1202 43.1333 64.5869 43.44C64.0535 43.7467 63.6269 44.18 63.3069 44.74C62.9869 45.2867 62.8269 45.94 62.8269 46.7C62.8269 47.4467 62.9869 48.1067 63.3069 48.68C63.6269 49.24 64.0535 49.6733 64.5869 49.98C65.1202 50.2867 65.7269 50.44 66.4069 50.44ZM80.2222 41.3C81.0889 41.3 81.8489 41.4667 82.5022 41.8C83.1689 42.1333 83.6889 42.64 84.0622 43.32C84.4355 44 84.6222 44.86 84.6222 45.9V52H82.7022V46.12C82.7022 45.0933 82.4489 44.32 81.9422 43.8C81.4489 43.28 80.7489 43.02 79.8422 43.02C79.1622 43.02 78.5689 43.1533 78.0622 43.42C77.5555 43.6867 77.1622 44.08 76.8822 44.6C76.6155 45.12 76.4822 45.7667 76.4822 46.54V52H74.5622V41.4H76.4022V44.26L76.1022 43.5C76.4489 42.8067 76.9822 42.2667 77.7022 41.88C78.4222 41.4933 79.2622 41.3 80.2222 41.3ZM92.8955 52.12C91.7621 52.12 90.7621 51.8867 89.8955 51.42C89.0421 50.9533 88.3755 50.3133 87.8955 49.5C87.4288 48.6867 87.1955 47.7533 87.1955 46.7C87.1955 45.6467 87.4221 44.7133 87.8755 43.9C88.3421 43.0867 88.9755 42.4533 89.7755 42C90.5888 41.5333 91.5021 41.3 92.5155 41.3C93.5421 41.3 94.4488 41.5267 95.2355 41.98C96.0221 42.4333 96.6355 43.0733 97.0755 43.9C97.5288 44.7133 97.7555 45.6667 97.7555 46.76C97.7555 46.84 97.7488 46.9333 97.7355 47.04C97.7355 47.1467 97.7288 47.2467 97.7155 47.34H88.6955V45.96H96.7155L95.9355 46.44C95.9488 45.76 95.8088 45.1533 95.5155 44.62C95.2221 44.0867 94.8155 43.6733 94.2955 43.38C93.7888 43.0733 93.1955 42.92 92.5155 42.92C91.8488 42.92 91.2555 43.0733 90.7355 43.38C90.2155 43.6733 89.8088 44.0933 89.5155 44.64C89.2221 45.1733 89.0755 45.7867 89.0755 46.48V46.8C89.0755 47.5067 89.2355 48.14 89.5555 48.7C89.8888 49.2467 90.3488 49.6733 90.9355 49.98C91.5221 50.2867 92.1955 50.44 92.9555 50.44C93.5821 50.44 94.1488 50.3333 94.6555 50.12C95.1755 49.9067 95.6288 49.5867 96.0155 49.16L97.0755 50.4C96.5955 50.96 95.9955 51.3867 95.2755 51.68C94.5688 51.9733 93.7755 52.12 92.8955 52.12Z" fill="#8B8B8B"/>
<path d="M41.68 105V87H45.96V105H41.68ZM34.6 98V94H53.04V98H34.6ZM61.6431 110L73.2031 84.08L74.5631 86.4H58.6831L61.1631 83.88V91.16H56.3231V82H78.0831V85.48L67.2031 110H61.6431ZM98.8338 117.76C97.2604 115.333 96.0471 112.533 95.1938 109.36C94.3671 106.16 93.9538 102.72 93.9538 99.04C93.9538 95.36 94.3671 91.92 95.1938 88.72C96.0471 85.4933 97.2604 82.6933 98.8338 80.32H103.594C101.967 83.2533 100.767 86.2533 99.9938 89.32C99.2471 92.36 98.8738 95.6 98.8738 99.04C98.8738 102.48 99.2471 105.733 99.9938 108.8C100.767 111.84 101.967 114.827 103.594 117.76H98.8338ZM105.04 103.64V100.04L118.84 82H124.4L110.8 100.04L108.2 99.24H130.4V103.64H105.04ZM120.4 110V103.64L120.56 99.24V93.6H125.44V110H120.4ZM141.833 81.6C144.393 81.6 146.566 82.1467 148.353 83.24C150.166 84.3067 151.553 85.8667 152.513 87.92C153.473 89.9733 153.953 92.5067 153.953 95.52C153.953 98.72 153.366 101.427 152.193 103.64C151.046 105.853 149.446 107.533 147.393 108.68C145.339 109.827 142.953 110.4 140.233 110.4C138.819 110.4 137.473 110.253 136.193 109.96C134.913 109.667 133.806 109.213 132.873 108.6L134.793 104.68C135.566 105.187 136.406 105.547 137.313 105.76C138.219 105.947 139.153 106.04 140.113 106.04C142.753 106.04 144.846 105.227 146.393 103.6C147.939 101.973 148.713 99.5733 148.713 96.4C148.713 95.8933 148.699 95.3067 148.673 94.64C148.646 93.9467 148.553 93.2533 148.393 92.56L149.993 94.32C149.539 95.4133 148.886 96.3333 148.033 97.08C147.179 97.8 146.179 98.3467 145.033 98.72C143.886 99.0933 142.619 99.28 141.233 99.28C139.419 99.28 137.779 98.9333 136.313 98.24C134.873 97.52 133.726 96.52 132.873 95.24C132.019 93.9333 131.593 92.4133 131.593 90.68C131.593 88.8133 132.046 87.2133 132.953 85.88C133.859 84.52 135.086 83.4667 136.633 82.72C138.206 81.9733 139.939 81.6 141.833 81.6ZM142.113 85.68C141.046 85.68 140.099 85.88 139.273 86.28C138.446 86.6533 137.793 87.2 137.313 87.92C136.859 88.6133 136.633 89.4533 136.633 90.44C136.633 91.9067 137.139 93.0667 138.153 93.92C139.166 94.7733 140.526 95.2 142.233 95.2C143.353 95.2 144.339 95 145.193 94.6C146.046 94.1733 146.713 93.6 147.193 92.88C147.673 92.1333 147.913 91.3067 147.913 90.4C147.913 89.52 147.686 88.7333 147.233 88.04C146.779 87.32 146.126 86.7467 145.273 86.32C144.419 85.8933 143.366 85.68 142.113 85.68ZM166.911 81.6C169.471 81.6 171.644 82.1467 173.431 83.24C175.244 84.3067 176.631 85.8667 177.591 87.92C178.551 89.9733 179.031 92.5067 179.031 95.52C179.031 98.72 178.444 101.427 177.271 103.64C176.124 105.853 174.524 107.533 172.471 108.68C170.418 109.827 168.031 110.4 165.311 110.4C163.898 110.4 162.551 110.253 161.271 109.96C159.991 109.667 158.884 109.213 157.951 108.6L159.871 104.68C160.644 105.187 161.484 105.547 162.391 105.76C163.298 105.947 164.231 106.04 165.191 106.04C167.831 106.04 169.924 105.227 171.471 103.6C173.018 101.973 173.791 99.5733 173.791 96.4C173.791 95.8933 173.778 95.3067 173.751 94.64C173.724 93.9467 173.631 93.2533 173.471 92.56L175.071 94.32C174.618 95.4133 173.964 96.3333 173.111 97.08C172.258 97.8 171.258 98.3467 170.111 98.72C168.964 99.0933 167.698 99.28 166.311 99.28C164.498 99.28 162.858 98.9333 161.391 98.24C159.951 97.52 158.804 96.52 157.951 95.24C157.098 93.9333 156.671 92.4133 156.671 90.68C156.671 88.8133 157.124 87.2133 158.031 85.88C158.938 84.52 160.164 83.4667 161.711 82.72C163.284 81.9733 165.018 81.6 166.911 81.6ZM167.191 85.68C166.124 85.68 165.178 85.88 164.351 86.28C163.524 86.6533 162.871 87.2 162.391 87.92C161.938 88.6133 161.711 89.4533 161.711 90.44C161.711 91.9067 162.218 93.0667 163.231 93.92C164.244 94.7733 165.604 95.2 167.311 95.2C168.431 95.2 169.418 95 170.271 94.6C171.124 94.1733 171.791 93.6 172.271 92.88C172.751 92.1333 172.991 91.3067 172.991 90.4C172.991 89.52 172.764 88.7333 172.311 88.04C171.858 87.32 171.204 86.7467 170.351 86.32C169.498 85.8933 168.444 85.68 167.191 85.68ZM186.429 117.76H181.669C183.322 114.827 184.522 111.84 185.269 108.8C186.042 105.733 186.429 102.48 186.429 99.04C186.429 95.6 186.042 92.36 185.269 89.32C184.522 86.2533 183.322 83.2533 181.669 80.32H186.429C188.029 82.6933 189.242 85.4933 190.069 88.72C190.896 91.92 191.309 95.36 191.309 99.04C191.309 102.72 190.896 106.16 190.069 109.36C189.242 112.533 188.029 115.333 186.429 117.76ZM216.31 110.4C214.337 110.4 212.403 110.12 210.51 109.56C208.643 108.973 207.07 108.173 205.79 107.16L208.03 103.12C209.043 103.947 210.27 104.613 211.71 105.12C213.15 105.627 214.657 105.88 216.23 105.88C218.097 105.88 219.55 105.507 220.59 104.76C221.63 103.987 222.15 102.947 222.15 101.64C222.15 100.36 221.67 99.3467 220.71 98.6C219.75 97.8533 218.203 97.48 216.07 97.48H213.51V93.92L221.51 84.4L222.19 86.36H207.15V82H226.23V85.48L218.23 95L215.51 93.4H217.07C220.51 93.4 223.083 94.1733 224.79 95.72C226.523 97.24 227.39 99.2 227.39 101.6C227.39 103.173 226.99 104.627 226.19 105.96C225.39 107.293 224.163 108.373 222.51 109.2C220.883 110 218.817 110.4 216.31 110.4ZM239.681 110.4C237.707 110.4 235.774 110.12 233.881 109.56C232.014 108.973 230.441 108.173 229.161 107.16L231.361 103.12C232.374 103.947 233.601 104.613 235.041 105.12C236.507 105.627 238.027 105.88 239.601 105.88C241.441 105.88 242.881 105.493 243.921 104.72C244.987 103.947 245.521 102.907 245.521 101.6C245.521 100.72 245.294 99.9467 244.841 99.28C244.414 98.6133 243.641 98.1067 242.521 97.76C241.427 97.4133 239.921 97.24 238.001 97.24H231.241L232.681 82H249.121V86.36H234.601L237.321 83.88L236.241 95.28L233.521 92.84H239.161C241.934 92.84 244.161 93.2133 245.841 93.96C247.547 94.68 248.787 95.6933 249.561 97C250.361 98.28 250.761 99.7467 250.761 101.4C250.761 103.027 250.361 104.52 249.561 105.88C248.761 107.24 247.534 108.333 245.881 109.16C244.254 109.987 242.187 110.4 239.681 110.4ZM265.44 110.4C263.227 110.4 261.227 109.84 259.44 108.72C257.68 107.6 256.293 105.973 255.28 103.84C254.267 101.68 253.76 99.0667 253.76 96C253.76 92.9333 254.267 90.3333 255.28 88.2C256.293 86.04 257.68 84.4 259.44 83.28C261.227 82.16 263.227 81.6 265.44 81.6C267.68 81.6 269.68 82.16 271.44 83.28C273.2 84.4 274.587 86.04 275.6 88.2C276.64 90.3333 277.16 92.9333 277.16 96C277.16 99.0667 276.64 101.68 275.6 103.84C274.587 105.973 273.2 107.6 271.44 108.72C269.68 109.84 267.68 110.4 265.44 110.4ZM265.44 105.88C266.747 105.88 267.88 105.533 268.84 104.84C269.8 104.12 270.547 103.027 271.08 101.56C271.64 100.093 271.92 98.24 271.92 96C271.92 93.7333 271.64 91.88 271.08 90.44C270.547 88.9733 269.8 87.8933 268.84 87.2C267.88 86.48 266.747 86.12 265.44 86.12C264.187 86.12 263.067 86.48 262.08 87.2C261.12 87.8933 260.36 88.9733 259.8 90.44C259.267 91.88 259 93.7333 259 96C259 98.24 259.267 100.093 259.8 101.56C260.36 103.027 261.12 104.12 262.08 104.84C263.067 105.533 264.187 105.88 265.44 105.88ZM281.309 100.96V96.8H292.309V100.96H281.309ZM308.575 110.4C306.042 110.4 303.869 109.867 302.055 108.8C300.242 107.707 298.855 106.133 297.895 104.08C296.935 102.027 296.455 99.4933 296.455 96.48C296.455 93.28 297.029 90.5733 298.175 88.36C299.349 86.1467 300.962 84.4667 303.015 83.32C305.095 82.1733 307.482 81.6 310.175 81.6C311.589 81.6 312.935 81.7467 314.215 82.04C315.522 82.3333 316.629 82.7867 317.535 83.4L315.615 87.32C314.842 86.8133 314.002 86.4667 313.095 86.28C312.215 86.0667 311.282 85.96 310.295 85.96C307.655 85.96 305.562 86.7733 304.015 88.4C302.469 90.0267 301.695 92.4267 301.695 95.6C301.695 96.1067 301.709 96.7067 301.735 97.4C301.762 98.0667 301.855 98.7467 302.015 99.44L300.415 97.68C300.895 96.5867 301.549 95.68 302.375 94.96C303.229 94.2133 304.229 93.6533 305.375 93.28C306.549 92.9067 307.815 92.72 309.175 92.72C311.015 92.72 312.655 93.08 314.095 93.8C315.535 94.4933 316.682 95.4933 317.535 96.8C318.389 98.08 318.815 99.5867 318.815 101.32C318.815 103.16 318.362 104.76 317.455 106.12C316.549 107.48 315.322 108.533 313.775 109.28C312.229 110.027 310.495 110.4 308.575 110.4ZM308.295 106.32C309.362 106.32 310.309 106.133 311.135 105.76C311.962 105.36 312.602 104.8 313.055 104.08C313.535 103.36 313.775 102.52 313.775 101.56C313.775 100.093 313.269 98.9333 312.255 98.08C311.242 97.2267 309.882 96.8 308.175 96.8C307.055 96.8 306.069 97.0133 305.215 97.44C304.389 97.84 303.722 98.4 303.215 99.12C302.735 99.84 302.495 100.667 302.495 101.6C302.495 102.453 302.722 103.24 303.175 103.96C303.629 104.68 304.282 105.253 305.135 105.68C306.015 106.107 307.069 106.32 308.295 106.32ZM333.653 110.4C331.12 110.4 328.947 109.867 327.133 108.8C325.32 107.707 323.933 106.133 322.973 104.08C322.013 102.027 321.533 99.4933 321.533 96.48C321.533 93.28 322.107 90.5733 323.253 88.36C324.427 86.1467 326.04 84.4667 328.093 83.32C330.173 82.1733 332.56 81.6 335.253 81.6C336.667 81.6 338.013 81.7467 339.293 82.04C340.6 82.3333 341.707 82.7867 342.613 83.4L340.693 87.32C339.92 86.8133 339.08 86.4667 338.173 86.28C337.293 86.0667 336.36 85.96 335.373 85.96C332.733 85.96 330.64 86.7733 329.093 88.4C327.547 90.0267 326.773 92.4267 326.773 95.6C326.773 96.1067 326.787 96.7067 326.813 97.4C326.84 98.0667 326.933 98.7467 327.093 99.44L325.493 97.68C325.973 96.5867 326.627 95.68 327.453 94.96C328.307 94.2133 329.307 93.6533 330.453 93.28C331.627 92.9067 332.893 92.72 334.253 92.72C336.093 92.72 337.733 93.08 339.173 93.8C340.613 94.4933 341.76 95.4933 342.613 96.8C343.467 98.08 343.893 99.5867 343.893 101.32C343.893 103.16 343.44 104.76 342.533 106.12C341.627 107.48 340.4 108.533 338.853 109.28C337.307 110.027 335.573 110.4 333.653 110.4ZM333.373 106.32C334.44 106.32 335.387 106.133 336.213 105.76C337.04 105.36 337.68 104.8 338.133 104.08C338.613 103.36 338.853 102.52 338.853 101.56C338.853 100.093 338.347 98.9333 337.333 98.08C336.32 97.2267 334.96 96.8 333.253 96.8C332.133 96.8 331.147 97.0133 330.293 97.44C329.467 97.84 328.8 98.4 328.293 99.12C327.813 99.84 327.573 100.667 327.573 101.6C327.573 102.453 327.8 103.24 328.253 103.96C328.707 104.68 329.36 105.253 330.213 105.68C331.093 106.107 332.147 106.32 333.373 106.32ZM347.247 100.96V96.8H358.247V100.96H347.247ZM374.073 110.4C371.859 110.4 369.859 109.84 368.073 108.72C366.313 107.6 364.926 105.973 363.913 103.84C362.899 101.68 362.393 99.0667 362.393 96C362.393 92.9333 362.899 90.3333 363.913 88.2C364.926 86.04 366.313 84.4 368.073 83.28C369.859 82.16 371.859 81.6 374.073 81.6C376.313 81.6 378.313 82.16 380.073 83.28C381.833 84.4 383.219 86.04 384.233 88.2C385.273 90.3333 385.793 92.9333 385.793 96C385.793 99.0667 385.273 101.68 384.233 103.84C383.219 105.973 381.833 107.6 380.073 108.72C378.313 109.84 376.313 110.4 374.073 110.4ZM374.073 105.88C375.379 105.88 376.513 105.533 377.473 104.84C378.433 104.12 379.179 103.027 379.713 101.56C380.273 100.093 380.553 98.24 380.553 96C380.553 93.7333 380.273 91.88 379.713 90.44C379.179 88.9733 378.433 87.8933 377.473 87.2C376.513 86.48 375.379 86.12 374.073 86.12C372.819 86.12 371.699 86.48 370.713 87.2C369.753 87.8933 368.993 88.9733 368.433 90.44C367.899 91.88 367.633 93.7333 367.633 96C367.633 98.24 367.899 100.093 368.433 101.56C368.993 103.027 369.753 104.12 370.713 104.84C371.699 105.533 372.819 105.88 374.073 105.88ZM388.907 103.64V100.04L402.707 82H408.267L394.667 100.04L392.067 99.24H414.267V103.64H388.907ZM404.267 110V103.64L404.427 99.24V93.6H409.307V110H404.267Z" fill="#282828"/>
<path d="M812 12C812 5.37258 817.373 0 824 0H1348C1354.63 0 1360 5.37258 1360 12V138C1360 144.627 1354.63 150 1348 150H824C817.373 150 812 144.627 812 138V12Z" fill="#F1F3F4"/>
<path d="M850.18 52.16C849.113 52.16 848.093 52 847.12 51.68C846.147 51.3467 845.38 50.92 844.82 50.4L845.56 48.84C846.093 49.3067 846.773 49.6933 847.6 50C848.427 50.3067 849.287 50.46 850.18 50.46C850.993 50.46 851.653 50.3667 852.16 50.18C852.667 49.9933 853.04 49.74 853.28 49.42C853.52 49.0867 853.64 48.7133 853.64 48.3C853.64 47.82 853.48 47.4333 853.16 47.14C852.853 46.8467 852.447 46.6133 851.94 46.44C851.447 46.2533 850.9 46.0933 850.3 45.96C849.7 45.8267 849.093 45.6733 848.48 45.5C847.88 45.3133 847.327 45.08 846.82 44.8C846.327 44.52 845.927 44.1467 845.62 43.68C845.313 43.2 845.16 42.5867 845.16 41.84C845.16 41.12 845.347 40.46 845.72 39.86C846.107 39.2467 846.693 38.76 847.48 38.4C848.28 38.0267 849.293 37.84 850.52 37.84C851.333 37.84 852.14 37.9467 852.94 38.16C853.74 38.3733 854.433 38.68 855.02 39.08L854.36 40.68C853.76 40.28 853.127 39.9933 852.46 39.82C851.793 39.6333 851.147 39.54 850.52 39.54C849.733 39.54 849.087 39.64 848.58 39.84C848.073 40.04 847.7 40.3067 847.46 40.64C847.233 40.9733 847.12 41.3467 847.12 41.76C847.12 42.2533 847.273 42.6467 847.58 42.94C847.9 43.2333 848.307 43.4667 848.8 43.64C849.307 43.8133 849.86 43.9733 850.46 44.12C851.06 44.2533 851.66 44.4067 852.26 44.58C852.873 44.7533 853.427 44.98 853.92 45.26C854.427 45.54 854.833 45.9133 855.14 46.38C855.447 46.8467 855.6 47.4467 855.6 48.18C855.6 48.8867 855.407 49.5467 855.02 50.16C854.633 50.76 854.033 51.2467 853.22 51.62C852.42 51.98 851.407 52.16 850.18 52.16ZM862.782 52.12C861.715 52.12 860.769 51.8867 859.942 51.42C859.115 50.9533 858.462 50.3133 857.982 49.5C857.502 48.6733 857.262 47.74 857.262 46.7C857.262 45.6467 857.502 44.7133 857.982 43.9C858.462 43.0867 859.115 42.4533 859.942 42C860.769 41.5333 861.715 41.3 862.782 41.3C863.835 41.3 864.775 41.5333 865.602 42C866.442 42.4533 867.095 43.0867 867.562 43.9C868.042 44.7 868.282 45.6333 868.282 46.7C868.282 47.7533 868.042 48.6867 867.562 49.5C867.095 50.3133 866.442 50.9533 865.602 51.42C864.775 51.8867 863.835 52.12 862.782 52.12ZM862.782 50.44C863.462 50.44 864.069 50.2867 864.602 49.98C865.149 49.6733 865.575 49.24 865.882 48.68C866.189 48.1067 866.342 47.4467 866.342 46.7C866.342 45.94 866.189 45.2867 865.882 44.74C865.575 44.18 865.149 43.7467 864.602 43.44C864.069 43.1333 863.462 42.98 862.782 42.98C862.102 42.98 861.495 43.1333 860.962 43.44C860.429 43.7467 860.002 44.18 859.682 44.74C859.362 45.2867 859.202 45.94 859.202 46.7C859.202 47.4467 859.362 48.1067 859.682 48.68C860.002 49.24 860.429 49.6733 860.962 49.98C861.495 50.2867 862.102 50.44 862.782 50.44ZM875.557 52.12C874.477 52.12 873.511 51.8867 872.657 51.42C871.817 50.9533 871.157 50.3133 870.677 49.5C870.197 48.6867 869.957 47.7533 869.957 46.7C869.957 45.6467 870.197 44.7133 870.677 43.9C871.157 43.0867 871.817 42.4533 872.657 42C873.511 41.5333 874.477 41.3 875.557 41.3C876.517 41.3 877.371 41.4933 878.117 41.88C878.877 42.2533 879.464 42.8133 879.877 43.56L878.417 44.5C878.071 43.98 877.644 43.6 877.137 43.36C876.644 43.1067 876.111 42.98 875.537 42.98C874.844 42.98 874.224 43.1333 873.677 43.44C873.131 43.7467 872.697 44.18 872.377 44.74C872.057 45.2867 871.897 45.94 871.897 46.7C871.897 47.46 872.057 48.12 872.377 48.68C872.697 49.24 873.131 49.6733 873.677 49.98C874.224 50.2867 874.844 50.44 875.537 50.44C876.111 50.44 876.644 50.32 877.137 50.08C877.644 49.8267 878.071 49.44 878.417 48.92L879.877 49.84C879.464 50.5733 878.877 51.14 878.117 51.54C877.371 51.9267 876.517 52.12 875.557 52.12ZM882.226 52V41.4H884.146V52H882.226ZM883.186 39.36C882.813 39.36 882.5 39.24 882.246 39C882.006 38.76 881.886 38.4667 881.886 38.12C881.886 37.76 882.006 37.46 882.246 37.22C882.5 36.98 882.813 36.86 883.186 36.86C883.56 36.86 883.866 36.98 884.106 37.22C884.36 37.4467 884.486 37.7333 884.486 38.08C884.486 38.44 884.366 38.7467 884.126 39C883.886 39.24 883.573 39.36 883.186 39.36ZM894.392 52V49.76L894.292 49.34V45.52C894.292 44.7067 894.052 44.08 893.572 43.64C893.106 43.1867 892.399 42.96 891.452 42.96C890.826 42.96 890.212 43.0667 889.612 43.28C889.012 43.48 888.506 43.7533 888.092 44.1L887.292 42.66C887.839 42.22 888.492 41.8867 889.252 41.66C890.026 41.42 890.832 41.3 891.672 41.3C893.126 41.3 894.246 41.6533 895.032 42.36C895.819 43.0667 896.212 44.1467 896.212 45.6V52H894.392ZM890.912 52.12C890.126 52.12 889.432 51.9867 888.832 51.72C888.246 51.4533 887.792 51.0867 887.472 50.62C887.152 50.14 886.992 49.6 886.992 49C886.992 48.4267 887.126 47.9067 887.392 47.44C887.672 46.9733 888.119 46.6 888.732 46.32C889.359 46.04 890.199 45.9 891.252 45.9H894.612V47.28H891.332C890.372 47.28 889.726 47.44 889.392 47.76C889.059 48.08 888.892 48.4667 888.892 48.92C888.892 49.44 889.099 49.86 889.512 50.18C889.926 50.4867 890.499 50.64 891.232 50.64C891.952 50.64 892.579 50.48 893.112 50.16C893.659 49.84 894.052 49.3733 894.292 48.76L894.672 50.08C894.419 50.7067 893.972 51.2067 893.332 51.58C892.692 51.94 891.886 52.12 890.912 52.12ZM899.765 52V37.16H901.685V52H899.765ZM908.391 52.12C907.511 52.12 906.671 52 905.871 51.76C905.085 51.52 904.465 51.2267 904.011 50.88L904.811 49.36C905.265 49.6667 905.825 49.9267 906.491 50.14C907.158 50.3533 907.838 50.46 908.531 50.46C909.425 50.46 910.065 50.3333 910.451 50.08C910.851 49.8267 911.051 49.4733 911.051 49.02C911.051 48.6867 910.931 48.4267 910.691 48.24C910.451 48.0533 910.131 47.9133 909.731 47.82C909.345 47.7267 908.911 47.6467 908.431 47.58C907.951 47.5 907.471 47.4067 906.991 47.3C906.511 47.18 906.071 47.02 905.671 46.82C905.271 46.6067 904.951 46.32 904.711 45.96C904.471 45.5867 904.351 45.0933 904.351 44.48C904.351 43.84 904.531 43.28 904.891 42.8C905.251 42.32 905.758 41.9533 906.411 41.7C907.078 41.4333 907.865 41.3 908.771 41.3C909.465 41.3 910.165 41.3867 910.871 41.56C911.591 41.72 912.178 41.9533 912.631 42.26L911.811 43.78C911.331 43.46 910.831 43.24 910.311 43.12C909.791 43 909.271 42.94 908.751 42.94C907.911 42.94 907.285 43.08 906.871 43.36C906.458 43.6267 906.251 43.9733 906.251 44.4C906.251 44.76 906.371 45.04 906.611 45.24C906.865 45.4267 907.185 45.5733 907.571 45.68C907.971 45.7867 908.411 45.88 908.891 45.96C909.371 46.0267 909.851 46.12 910.331 46.24C910.811 46.3467 911.245 46.5 911.631 46.7C912.031 46.9 912.351 47.18 912.591 47.54C912.845 47.9 912.971 48.38 912.971 48.98C912.971 49.62 912.785 50.1733 912.411 50.64C912.038 51.1067 911.511 51.4733 910.831 51.74C910.151 51.9933 909.338 52.12 908.391 52.12Z" fill="#8B8B8B"/>
<path d="M875.5 77H856.5C851.275 77 847 81.2736 847 86.5V105.5C847 110.725 851.275 115 856.5 115H875.5C880.725 115 885 110.725 885 105.5V86.5C885 81.2736 880.725 77 875.5 77ZM866 103.916C861.627 103.916 858.083 100.371 858.083 96C858.083 91.6271 861.627 88.0832 866 88.0832C870.371 88.0832 873.917 91.6271 873.917 96C873.917 100.371 870.371 103.916 866 103.916ZM876.292 88.0832C874.979 88.0832 873.917 87.0196 873.917 85.7082C873.917 84.3967 874.979 83.3332 876.292 83.3332C877.605 83.3332 878.667 84.3967 878.667 85.7082C878.667 87.0196 877.605 88.0832 876.292 88.0832Z" fill="#282828"/>
<path d="M924.959 77C914.482 77 905.959 85.5228 905.959 96C905.959 99.6862 907.016 103.24 909.022 106.326L906.062 113.235C905.858 113.71 905.964 114.263 906.33 114.629C906.573 114.871 906.897 115 907.226 115C907.394 115 907.564 114.967 907.725 114.897L914.633 111.936C917.719 113.944 921.273 115 924.959 115C935.436 115 943.959 106.477 943.959 96C943.959 85.5228 935.436 77 924.959 77ZM934.711 102.801C934.711 102.801 933.132 104.827 931.99 105.301C929.088 106.502 924.991 105.301 920.324 100.635C915.658 95.9678 914.456 91.871 915.658 88.969C916.132 87.826 918.158 86.2477 918.158 86.2477C918.707 85.8197 919.561 85.8729 920.053 86.3652L922.345 88.6573C922.838 89.1496 922.838 89.9561 922.345 90.4484L920.907 91.8858C920.907 91.8858 920.324 93.6349 923.823 97.1355C927.323 100.635 929.073 100.052 929.073 100.052L930.511 98.6137C931.003 98.1214 931.809 98.1214 932.302 98.6137L934.594 100.906C935.086 101.398 935.139 102.25 934.711 102.801Z" fill="#282828"/>
<path d="M0 194C0 187.373 5.37258 182 12 182H768C774.627 182 780 187.373 780 194V364C780 370.627 774.627 376 768 376H12C5.37258 376 0 370.627 0 364V194Z" fill="#F1F3F4"/>
<path d="M31.98 234L38.32 220H40.3L46.66 234H44.56L38.9 221.12H39.7L34.04 234H31.98ZM34.68 230.5L35.22 228.9H43.1L43.68 230.5H34.68ZM52.7508 234.12C51.7241 234.12 50.8041 233.893 49.9908 233.44C49.1908 232.987 48.5574 232.353 48.0908 231.54C47.6241 230.727 47.3908 229.78 47.3908 228.7C47.3908 227.62 47.6241 226.68 48.0908 225.88C48.5574 225.067 49.1908 224.433 49.9908 223.98C50.8041 223.527 51.7241 223.3 52.7508 223.3C53.6441 223.3 54.4508 223.5 55.1708 223.9C55.8908 224.3 56.4641 224.9 56.8908 225.7C57.3308 226.5 57.5508 227.5 57.5508 228.7C57.5508 229.9 57.3374 230.9 56.9108 231.7C56.4974 232.5 55.9308 233.107 55.2108 233.52C54.4908 233.92 53.6708 234.12 52.7508 234.12ZM52.9108 232.44C53.5774 232.44 54.1774 232.287 54.7108 231.98C55.2574 231.673 55.6841 231.24 55.9908 230.68C56.3108 230.107 56.4708 229.447 56.4708 228.7C56.4708 227.94 56.3108 227.287 55.9908 226.74C55.6841 226.18 55.2574 225.747 54.7108 225.44C54.1774 225.133 53.5774 224.98 52.9108 224.98C52.2308 224.98 51.6241 225.133 51.0908 225.44C50.5574 225.747 50.1308 226.18 49.8108 226.74C49.4908 227.287 49.3308 227.94 49.3308 228.7C49.3308 229.447 49.4908 230.107 49.8108 230.68C50.1308 231.24 50.5574 231.673 51.0908 231.98C51.6241 232.287 52.2308 232.44 52.9108 232.44ZM56.5308 234V231.14L56.6508 228.68L56.4508 226.22V219.16H58.3708V234H56.5308ZM66.3836 234.12C65.3569 234.12 64.4369 233.893 63.6236 233.44C62.8236 232.987 62.1903 232.353 61.7236 231.54C61.2569 230.727 61.0236 229.78 61.0236 228.7C61.0236 227.62 61.2569 226.68 61.7236 225.88C62.1903 225.067 62.8236 224.433 63.6236 223.98C64.4369 223.527 65.3569 223.3 66.3836 223.3C67.2769 223.3 68.0836 223.5 68.8036 223.9C69.5236 224.3 70.0969 224.9 70.5236 225.7C70.9636 226.5 71.1836 227.5 71.1836 228.7C71.1836 229.9 70.9703 230.9 70.5436 231.7C70.1303 232.5 69.5636 233.107 68.8436 233.52C68.1236 233.92 67.3036 234.12 66.3836 234.12ZM66.5436 232.44C67.2103 232.44 67.8103 232.287 68.3436 231.98C68.8903 231.673 69.3169 231.24 69.6236 230.68C69.9436 230.107 70.1036 229.447 70.1036 228.7C70.1036 227.94 69.9436 227.287 69.6236 226.74C69.3169 226.18 68.8903 225.747 68.3436 225.44C67.8103 225.133 67.2103 224.98 66.5436 224.98C65.8636 224.98 65.2569 225.133 64.7236 225.44C64.1903 225.747 63.7636 226.18 63.4436 226.74C63.1236 227.287 62.9636 227.94 62.9636 228.7C62.9636 229.447 63.1236 230.107 63.4436 230.68C63.7636 231.24 64.1903 231.673 64.7236 231.98C65.2569 232.287 65.8636 232.44 66.5436 232.44ZM70.1636 234V231.14L70.2836 228.68L70.0836 226.22V219.16H72.0036V234H70.1636ZM75.6364 234V223.4H77.4764V226.28L77.2964 225.56C77.5897 224.827 78.0831 224.267 78.7764 223.88C79.4697 223.493 80.3231 223.3 81.3364 223.3V225.16C81.2564 225.147 81.1764 225.14 81.0964 225.14C81.0297 225.14 80.9631 225.14 80.8964 225.14C79.8697 225.14 79.0564 225.447 78.4564 226.06C77.8564 226.673 77.5564 227.56 77.5564 228.72V234H75.6364ZM88.3252 234.12C87.1918 234.12 86.1918 233.887 85.3252 233.42C84.4718 232.953 83.8052 232.313 83.3252 231.5C82.8585 230.687 82.6252 229.753 82.6252 228.7C82.6252 227.647 82.8518 226.713 83.3052 225.9C83.7718 225.087 84.4052 224.453 85.2052 224C86.0185 223.533 86.9318 223.3 87.9452 223.3C88.9718 223.3 89.8785 223.527 90.6652 223.98C91.4518 224.433 92.0652 225.073 92.5052 225.9C92.9585 226.713 93.1852 227.667 93.1852 228.76C93.1852 228.84 93.1785 228.933 93.1652 229.04C93.1652 229.147 93.1585 229.247 93.1452 229.34H84.1252V227.96H92.1452L91.3652 228.44C91.3785 227.76 91.2385 227.153 90.9452 226.62C90.6518 226.087 90.2452 225.673 89.7252 225.38C89.2185 225.073 88.6252 224.92 87.9452 224.92C87.2785 224.92 86.6852 225.073 86.1652 225.38C85.6452 225.673 85.2385 226.093 84.9452 226.64C84.6518 227.173 84.5052 227.787 84.5052 228.48V228.8C84.5052 229.507 84.6652 230.14 84.9852 230.7C85.3185 231.247 85.7785 231.673 86.3652 231.98C86.9518 232.287 87.6252 232.44 88.3852 232.44C89.0118 232.44 89.5785 232.333 90.0852 232.12C90.6052 231.907 91.0585 231.587 91.4452 231.16L92.5052 232.4C92.0252 232.96 91.4252 233.387 90.7052 233.68C89.9985 233.973 89.2052 234.12 88.3252 234.12ZM98.8913 234.12C98.0113 234.12 97.1713 234 96.3713 233.76C95.5846 233.52 94.9646 233.227 94.5113 232.88L95.3113 231.36C95.7646 231.667 96.3246 231.927 96.9913 232.14C97.6579 232.353 98.3379 232.46 99.0312 232.46C99.9246 232.46 100.565 232.333 100.951 232.08C101.351 231.827 101.551 231.473 101.551 231.02C101.551 230.687 101.431 230.427 101.191 230.24C100.951 230.053 100.631 229.913 100.231 229.82C99.8446 229.727 99.4113 229.647 98.9313 229.58C98.4513 229.5 97.9713 229.407 97.4913 229.3C97.0113 229.18 96.5713 229.02 96.1713 228.82C95.7713 228.607 95.4513 228.32 95.2113 227.96C94.9713 227.587 94.8513 227.093 94.8513 226.48C94.8513 225.84 95.0313 225.28 95.3913 224.8C95.7513 224.32 96.2579 223.953 96.9113 223.7C97.5779 223.433 98.3646 223.3 99.2713 223.3C99.9646 223.3 100.665 223.387 101.371 223.56C102.091 223.72 102.678 223.953 103.131 224.26L102.311 225.78C101.831 225.46 101.331 225.24 100.811 225.12C100.291 225 99.7713 224.94 99.2513 224.94C98.4113 224.94 97.7846 225.08 97.3713 225.36C96.9579 225.627 96.7513 225.973 96.7513 226.4C96.7513 226.76 96.8713 227.04 97.1113 227.24C97.3646 227.427 97.6846 227.573 98.0713 227.68C98.4713 227.787 98.9113 227.88 99.3913 227.96C99.8713 228.027 100.351 228.12 100.831 228.24C101.311 228.347 101.745 228.5 102.131 228.7C102.531 228.9 102.851 229.18 103.091 229.54C103.345 229.9 103.471 230.38 103.471 230.98C103.471 231.62 103.285 232.173 102.911 232.64C102.538 233.107 102.011 233.473 101.331 233.74C100.651 233.993 99.8379 234.12 98.8913 234.12ZM108.911 234.12C108.031 234.12 107.191 234 106.391 233.76C105.604 233.52 104.984 233.227 104.531 232.88L105.331 231.36C105.784 231.667 106.344 231.927 107.011 232.14C107.677 232.353 108.357 232.46 109.051 232.46C109.944 232.46 110.584 232.333 110.971 232.08C111.371 231.827 111.571 231.473 111.571 231.02C111.571 230.687 111.451 230.427 111.211 230.24C110.971 230.053 110.651 229.913 110.251 229.82C109.864 229.727 109.431 229.647 108.951 229.58C108.471 229.5 107.991 229.407 107.511 229.3C107.031 229.18 106.591 229.02 106.191 228.82C105.791 228.607 105.471 228.32 105.231 227.96C104.991 227.587 104.871 227.093 104.871 226.48C104.871 225.84 105.051 225.28 105.411 224.8C105.771 224.32 106.277 223.953 106.931 223.7C107.597 223.433 108.384 223.3 109.291 223.3C109.984 223.3 110.684 223.387 111.391 223.56C112.111 223.72 112.697 223.953 113.151 224.26L112.331 225.78C111.851 225.46 111.351 225.24 110.831 225.12C110.311 225 109.791 224.94 109.271 224.94C108.431 224.94 107.804 225.08 107.391 225.36C106.977 225.627 106.771 225.973 106.771 226.4C106.771 226.76 106.891 227.04 107.131 227.24C107.384 227.427 107.704 227.573 108.091 227.68C108.491 227.787 108.931 227.88 109.411 227.96C109.891 228.027 110.371 228.12 110.851 228.24C111.331 228.347 111.764 228.5 112.151 228.7C112.551 228.9 112.871 229.18 113.111 229.54C113.364 229.9 113.491 230.38 113.491 230.98C113.491 231.62 113.304 232.173 112.931 232.64C112.557 233.107 112.031 233.473 111.351 233.74C110.671 233.993 109.857 234.12 108.911 234.12Z" fill="#8B8B8B"/>
<path d="M35.76 292V264H48C51.04 264 53.7067 264.587 56 265.76C58.2933 266.933 60.08 268.56 61.36 270.64C62.64 272.72 63.28 275.173 63.28 278C63.28 280.8 62.64 283.253 61.36 285.36C60.08 287.44 58.2933 289.067 56 290.24C53.7067 291.413 51.04 292 48 292H35.76ZM40.96 287.6H47.76C49.8667 287.6 51.68 287.2 53.2 286.4C54.7467 285.6 55.9333 284.48 56.76 283.04C57.6133 281.6 58.04 279.92 58.04 278C58.04 276.053 57.6133 274.373 56.76 272.96C55.9333 271.52 54.7467 270.4 53.2 269.6C51.68 268.8 49.8667 268.4 47.76 268.4H40.96V287.6ZM77.3669 292.28C75.5535 292.28 73.9535 291.947 72.5669 291.28C71.1802 290.587 70.1002 289.547 69.3269 288.16C68.5535 286.747 68.1669 284.973 68.1669 282.84V270.64H73.1669V282.16C73.1669 284.08 73.5935 285.52 74.4469 286.48C75.3269 287.413 76.5669 287.88 78.1669 287.88C79.3402 287.88 80.3535 287.64 81.2069 287.16C82.0869 286.68 82.7669 285.96 83.2469 285C83.7535 284.04 84.0069 282.853 84.0069 281.44V270.64H89.0069V292H84.2469V286.24L85.0869 288C84.3669 289.387 83.3135 290.453 81.9269 291.2C80.5402 291.92 79.0202 292.28 77.3669 292.28ZM107.393 292.28C105.58 292.28 103.967 291.88 102.553 291.08C101.14 290.28 100.02 289.08 99.1934 287.48C98.3934 285.853 97.9934 283.8 97.9934 281.32C97.9934 278.813 98.4068 276.76 99.2334 275.16C100.087 273.56 101.22 272.373 102.633 271.6C104.073 270.8 105.66 270.4 107.393 270.4C109.5 270.4 111.353 270.853 112.953 271.76C114.58 272.667 115.86 273.933 116.793 275.56C117.753 277.187 118.233 279.107 118.233 281.32C118.233 283.533 117.753 285.453 116.793 287.08C115.86 288.707 114.58 289.987 112.953 290.92C111.353 291.827 109.5 292.28 107.393 292.28ZM95.5534 292V262.32H100.553V275.6L100.153 281.28L100.313 286.96V292H95.5534ZM106.833 288C108.033 288 109.1 287.733 110.033 287.2C110.993 286.667 111.753 285.893 112.313 284.88C112.873 283.867 113.153 282.68 113.153 281.32C113.153 279.933 112.873 278.747 112.313 277.76C111.753 276.747 110.993 275.973 110.033 275.44C109.1 274.907 108.033 274.64 106.833 274.64C105.633 274.64 104.553 274.907 103.593 275.44C102.633 275.973 101.873 276.747 101.313 277.76C100.753 278.747 100.473 279.933 100.473 281.32C100.473 282.68 100.753 283.867 101.313 284.88C101.873 285.893 102.633 286.667 103.593 287.2C104.553 287.733 105.633 288 106.833 288ZM122.975 292V270.64H127.975V292H122.975ZM125.495 267.12C124.562 267.12 123.789 266.827 123.175 266.24C122.589 265.653 122.295 264.947 122.295 264.12C122.295 263.267 122.589 262.56 123.175 262C123.789 261.413 124.562 261.12 125.495 261.12C126.429 261.12 127.189 261.4 127.775 261.96C128.389 262.493 128.695 263.173 128.695 264C128.695 264.88 128.402 265.627 127.815 266.24C127.229 266.827 126.455 267.12 125.495 267.12ZM146.658 270.4C148.364 270.4 149.884 270.733 151.218 271.4C152.578 272.067 153.644 273.093 154.418 274.48C155.191 275.84 155.578 277.6 155.578 279.76V292H150.578V280.4C150.578 278.507 150.124 277.093 149.218 276.16C148.338 275.227 147.098 274.76 145.498 274.76C144.324 274.76 143.284 275 142.378 275.48C141.471 275.96 140.764 276.68 140.258 277.64C139.778 278.573 139.538 279.76 139.538 281.2V292H134.538V270.64H139.298V276.4L138.458 274.64C139.204 273.28 140.284 272.24 141.698 271.52C143.138 270.773 144.791 270.4 146.658 270.4ZM161.921 292V270.64H166.921V292H161.921ZM164.441 267.12C163.507 267.12 162.734 266.827 162.121 266.24C161.534 265.653 161.241 264.947 161.241 264.12C161.241 263.267 161.534 262.56 162.121 262C162.734 261.413 163.507 261.12 164.441 261.12C165.374 261.12 166.134 261.4 166.721 261.96C167.334 262.493 167.641 263.173 167.641 264C167.641 264.88 167.347 265.627 166.761 266.24C166.174 266.827 165.401 267.12 164.441 267.12ZM185.603 270.4C187.31 270.4 188.83 270.733 190.163 271.4C191.523 272.067 192.59 273.093 193.363 274.48C194.136 275.84 194.523 277.6 194.523 279.76V292H189.523V280.4C189.523 278.507 189.07 277.093 188.163 276.16C187.283 275.227 186.043 274.76 184.443 274.76C183.27 274.76 182.23 275 181.323 275.48C180.416 275.96 179.71 276.68 179.203 277.64C178.723 278.573 178.483 279.76 178.483 281.2V292H173.483V270.64H178.243V276.4L177.403 274.64C178.15 273.28 179.23 272.24 180.643 271.52C182.083 270.773 183.736 270.4 185.603 270.4ZM207.466 292.28C205.679 292.28 203.959 292.053 202.306 291.6C200.679 291.12 199.386 290.547 198.426 289.88L200.346 286.08C201.306 286.693 202.453 287.2 203.786 287.6C205.119 288 206.453 288.2 207.786 288.2C209.359 288.2 210.493 287.987 211.186 287.56C211.906 287.133 212.266 286.56 212.266 285.84C212.266 285.253 212.026 284.813 211.546 284.52C211.066 284.2 210.439 283.96 209.666 283.8C208.893 283.64 208.026 283.493 207.066 283.36C206.133 283.227 205.186 283.053 204.226 282.84C203.293 282.6 202.439 282.267 201.666 281.84C200.893 281.387 200.266 280.787 199.786 280.04C199.306 279.293 199.066 278.307 199.066 277.08C199.066 275.72 199.453 274.547 200.226 273.56C200.999 272.547 202.079 271.773 203.466 271.24C204.879 270.68 206.546 270.4 208.466 270.4C209.906 270.4 211.359 270.56 212.826 270.88C214.293 271.2 215.506 271.653 216.466 272.24L214.546 276.04C213.533 275.427 212.506 275.013 211.466 274.8C210.453 274.56 209.439 274.44 208.426 274.44C206.906 274.44 205.773 274.667 205.026 275.12C204.306 275.573 203.946 276.147 203.946 276.84C203.946 277.48 204.186 277.96 204.666 278.28C205.146 278.6 205.773 278.853 206.546 279.04C207.319 279.227 208.173 279.387 209.106 279.52C210.066 279.627 211.013 279.8 211.946 280.04C212.879 280.28 213.733 280.613 214.506 281.04C215.306 281.44 215.946 282.013 216.426 282.76C216.906 283.507 217.146 284.48 217.146 285.68C217.146 287.013 216.746 288.173 215.946 289.16C215.173 290.147 214.066 290.92 212.626 291.48C211.186 292.013 209.466 292.28 207.466 292.28ZM225.532 287.24L225.652 280.96L236.812 270.64H242.812L233.332 280.16L230.692 282.36L225.532 287.24ZM221.452 292V262.32H226.452V292H221.452ZM237.572 292L229.772 282.36L232.932 278.36L243.652 292H237.572ZM259.651 292V287.68L259.371 286.76V279.2C259.371 277.733 258.931 276.6 258.051 275.8C257.171 274.973 255.838 274.56 254.051 274.56C252.851 274.56 251.664 274.747 250.491 275.12C249.344 275.493 248.371 276.013 247.571 276.68L245.611 273.04C246.758 272.16 248.118 271.507 249.691 271.08C251.291 270.627 252.944 270.4 254.651 270.4C257.744 270.4 260.131 271.147 261.811 272.64C263.518 274.107 264.371 276.387 264.371 279.48V292H259.651ZM252.931 292.28C251.331 292.28 249.931 292.013 248.731 291.48C247.531 290.92 246.598 290.16 245.931 289.2C245.291 288.213 244.971 287.107 244.971 285.88C244.971 284.68 245.251 283.6 245.811 282.64C246.398 281.68 247.344 280.92 248.651 280.36C249.958 279.8 251.691 279.52 253.851 279.52H260.051V282.84H254.211C252.504 282.84 251.358 283.12 250.771 283.68C250.184 284.213 249.891 284.88 249.891 285.68C249.891 286.587 250.251 287.307 250.971 287.84C251.691 288.373 252.691 288.64 253.971 288.64C255.198 288.64 256.291 288.36 257.251 287.8C258.238 287.24 258.944 286.413 259.371 285.32L260.211 288.32C259.731 289.573 258.864 290.547 257.611 291.24C256.384 291.933 254.824 292.28 252.931 292.28ZM272.157 300.04C271.117 300.04 270.077 299.867 269.037 299.52C267.997 299.173 267.131 298.693 266.437 298.08L268.437 294.4C268.944 294.853 269.517 295.213 270.157 295.48C270.797 295.747 271.451 295.88 272.117 295.88C273.024 295.88 273.757 295.653 274.317 295.2C274.877 294.747 275.397 293.987 275.877 292.92L277.117 290.12L277.517 289.52L285.597 270.64H290.397L280.397 293.72C279.731 295.32 278.984 296.587 278.157 297.52C277.357 298.453 276.451 299.107 275.437 299.48C274.451 299.853 273.357 300.04 272.157 300.04ZM276.557 292.76L266.917 270.64H272.117L279.957 289.08L276.557 292.76ZM306.018 292V287.68L305.738 286.76V279.2C305.738 277.733 305.298 276.6 304.418 275.8C303.538 274.973 302.205 274.56 300.418 274.56C299.218 274.56 298.031 274.747 296.858 275.12C295.711 275.493 294.738 276.013 293.938 276.68L291.978 273.04C293.125 272.16 294.485 271.507 296.058 271.08C297.658 270.627 299.311 270.4 301.018 270.4C304.111 270.4 306.498 271.147 308.178 272.64C309.885 274.107 310.738 276.387 310.738 279.48V292H306.018ZM299.298 292.28C297.698 292.28 296.298 292.013 295.098 291.48C293.898 290.92 292.965 290.16 292.298 289.2C291.658 288.213 291.338 287.107 291.338 285.88C291.338 284.68 291.618 283.6 292.178 282.64C292.765 281.68 293.711 280.92 295.018 280.36C296.325 279.8 298.058 279.52 300.218 279.52H306.418V282.84H300.578C298.871 282.84 297.725 283.12 297.138 283.68C296.551 284.213 296.258 284.88 296.258 285.68C296.258 286.587 296.618 287.307 297.338 287.84C298.058 288.373 299.058 288.64 300.338 288.64C301.565 288.64 302.658 288.36 303.618 287.8C304.605 287.24 305.311 286.413 305.738 285.32L306.578 288.32C306.098 289.573 305.231 290.547 303.978 291.24C302.751 291.933 301.191 292.28 299.298 292.28ZM340.73 292.4C336.89 292.4 333.876 291.32 331.69 289.16C329.53 287 328.45 283.88 328.45 279.8V264H333.65V279.6C333.65 282.48 334.263 284.573 335.49 285.88C336.743 287.187 338.503 287.84 340.77 287.84C343.036 287.84 344.783 287.187 346.01 285.88C347.236 284.573 347.85 282.48 347.85 279.6V264H352.97V279.8C352.97 283.88 351.876 287 349.69 289.16C347.53 291.32 344.543 292.4 340.73 292.4ZM359.772 292V262.32H364.772V292H359.772ZM371.335 292V270.64H376.335V292H371.335ZM373.855 267.12C372.921 267.12 372.148 266.827 371.535 266.24C370.948 265.653 370.655 264.947 370.655 264.12C370.655 263.267 370.948 262.56 371.535 262C372.148 261.413 372.921 261.12 373.855 261.12C374.788 261.12 375.548 261.4 376.135 261.96C376.748 262.493 377.055 263.173 377.055 264C377.055 264.88 376.761 265.627 376.175 266.24C375.588 266.827 374.815 267.12 373.855 267.12ZM390.937 292.28C388.591 292.28 386.777 291.68 385.497 290.48C384.217 289.253 383.577 287.453 383.577 285.08V265.92H388.577V284.96C388.577 285.973 388.831 286.76 389.337 287.32C389.871 287.88 390.604 288.16 391.537 288.16C392.657 288.16 393.591 287.867 394.337 287.28L395.737 290.84C395.151 291.32 394.431 291.68 393.577 291.92C392.724 292.16 391.844 292.28 390.937 292.28ZM380.057 274.8V270.8H394.297V274.8H380.057ZM406.45 292.28C404.664 292.28 402.944 292.053 401.29 291.6C399.664 291.12 398.37 290.547 397.41 289.88L399.33 286.08C400.29 286.693 401.437 287.2 402.77 287.6C404.104 288 405.437 288.2 406.77 288.2C408.344 288.2 409.477 287.987 410.17 287.56C410.89 287.133 411.25 286.56 411.25 285.84C411.25 285.253 411.01 284.813 410.53 284.52C410.05 284.2 409.424 283.96 408.65 283.8C407.877 283.64 407.01 283.493 406.05 283.36C405.117 283.227 404.17 283.053 403.21 282.84C402.277 282.6 401.424 282.267 400.65 281.84C399.877 281.387 399.25 280.787 398.77 280.04C398.29 279.293 398.05 278.307 398.05 277.08C398.05 275.72 398.437 274.547 399.21 273.56C399.984 272.547 401.064 271.773 402.45 271.24C403.864 270.68 405.53 270.4 407.45 270.4C408.89 270.4 410.344 270.56 411.81 270.88C413.277 271.2 414.49 271.653 415.45 272.24L413.53 276.04C412.517 275.427 411.49 275.013 410.45 274.8C409.437 274.56 408.424 274.44 407.41 274.44C405.89 274.44 404.757 274.667 404.01 275.12C403.29 275.573 402.93 276.147 402.93 276.84C402.93 277.48 403.17 277.96 403.65 278.28C404.13 278.6 404.757 278.853 405.53 279.04C406.304 279.227 407.157 279.387 408.09 279.52C409.05 279.627 409.997 279.8 410.93 280.04C411.864 280.28 412.717 280.613 413.49 281.04C414.29 281.44 414.93 282.013 415.41 282.76C415.89 283.507 416.13 284.48 416.13 285.68C416.13 287.013 415.73 288.173 414.93 289.16C414.157 290.147 413.05 290.92 411.61 291.48C410.17 292.013 408.45 292.28 406.45 292.28ZM433.596 292V287.68L433.316 286.76V279.2C433.316 277.733 432.876 276.6 431.996 275.8C431.116 274.973 429.783 274.56 427.996 274.56C426.796 274.56 425.61 274.747 424.436 275.12C423.29 275.493 422.316 276.013 421.516 276.68L419.556 273.04C420.703 272.16 422.063 271.507 423.636 271.08C425.236 270.627 426.89 270.4 428.596 270.4C431.69 270.4 434.076 271.147 435.756 272.64C437.463 274.107 438.316 276.387 438.316 279.48V292H433.596ZM426.876 292.28C425.276 292.28 423.876 292.013 422.676 291.48C421.476 290.92 420.543 290.16 419.876 289.2C419.236 288.213 418.916 287.107 418.916 285.88C418.916 284.68 419.196 283.6 419.756 282.64C420.343 281.68 421.29 280.92 422.596 280.36C423.903 279.8 425.636 279.52 427.796 279.52H433.996V282.84H428.156C426.45 282.84 425.303 283.12 424.716 283.68C424.13 284.213 423.836 284.88 423.836 285.68C423.836 286.587 424.196 287.307 424.916 287.84C425.636 288.373 426.636 288.64 427.916 288.64C429.143 288.64 430.236 288.36 431.196 287.8C432.183 287.24 432.89 286.413 433.316 285.32L434.156 288.32C433.676 289.573 432.81 290.547 431.556 291.24C430.33 291.933 428.77 292.28 426.876 292.28ZM443.413 298.04L445.733 289.2L446.413 292.16C445.48 292.16 444.693 291.88 444.053 291.32C443.44 290.733 443.133 289.947 443.133 288.96C443.133 287.947 443.44 287.147 444.053 286.56C444.693 285.947 445.466 285.64 446.373 285.64C447.306 285.64 448.08 285.947 448.693 286.56C449.306 287.173 449.613 287.973 449.613 288.96C449.613 289.227 449.586 289.52 449.533 289.84C449.48 290.133 449.386 290.48 449.253 290.88C449.146 291.28 448.96 291.787 448.693 292.4L446.653 298.04H443.413ZM473.473 263.6C476.033 263.6 478.207 264.147 479.993 265.24C481.807 266.307 483.193 267.867 484.153 269.92C485.113 271.973 485.593 274.507 485.593 277.52C485.593 280.72 485.007 283.427 483.833 285.64C482.687 287.853 481.087 289.533 479.033 290.68C476.98 291.827 474.593 292.4 471.873 292.4C470.46 292.4 469.113 292.253 467.833 291.96C466.553 291.667 465.447 291.213 464.513 290.6L466.433 286.68C467.207 287.187 468.047 287.547 468.953 287.76C469.86 287.947 470.793 288.04 471.753 288.04C474.393 288.04 476.487 287.227 478.033 285.6C479.58 283.973 480.353 281.573 480.353 278.4C480.353 277.893 480.34 277.307 480.313 276.64C480.287 275.947 480.193 275.253 480.033 274.56L481.633 276.32C481.18 277.413 480.527 278.333 479.673 279.08C478.82 279.8 477.82 280.347 476.673 280.72C475.527 281.093 474.26 281.28 472.873 281.28C471.06 281.28 469.42 280.933 467.953 280.24C466.513 279.52 465.367 278.52 464.513 277.24C463.66 275.933 463.233 274.413 463.233 272.68C463.233 270.813 463.687 269.213 464.593 267.88C465.5 266.52 466.727 265.467 468.273 264.72C469.847 263.973 471.58 263.6 473.473 263.6ZM473.753 267.68C472.687 267.68 471.74 267.88 470.913 268.28C470.087 268.653 469.433 269.2 468.953 269.92C468.5 270.613 468.273 271.453 468.273 272.44C468.273 273.907 468.78 275.067 469.793 275.92C470.807 276.773 472.167 277.2 473.873 277.2C474.993 277.2 475.98 277 476.833 276.6C477.687 276.173 478.353 275.6 478.833 274.88C479.313 274.133 479.553 273.307 479.553 272.4C479.553 271.52 479.327 270.733 478.873 270.04C478.42 269.32 477.767 268.747 476.913 268.32C476.06 267.893 475.007 267.68 473.753 267.68ZM501.232 292.4C498.698 292.4 496.525 291.867 494.712 290.8C492.898 289.707 491.512 288.133 490.552 286.08C489.592 284.027 489.112 281.493 489.112 278.48C489.112 275.28 489.685 272.573 490.832 270.36C492.005 268.147 493.618 266.467 495.672 265.32C497.752 264.173 500.138 263.6 502.832 263.6C504.245 263.6 505.592 263.747 506.872 264.04C508.178 264.333 509.285 264.787 510.192 265.4L508.272 269.32C507.498 268.813 506.658 268.467 505.752 268.28C504.872 268.067 503.938 267.96 502.952 267.96C500.312 267.96 498.218 268.773 496.672 270.4C495.125 272.027 494.352 274.427 494.352 277.6C494.352 278.107 494.365 278.707 494.392 279.4C494.418 280.067 494.512 280.747 494.672 281.44L493.072 279.68C493.552 278.587 494.205 277.68 495.032 276.96C495.885 276.213 496.885 275.653 498.032 275.28C499.205 274.907 500.472 274.72 501.832 274.72C503.672 274.72 505.312 275.08 506.752 275.8C508.192 276.493 509.338 277.493 510.192 278.8C511.045 280.08 511.472 281.587 511.472 283.32C511.472 285.16 511.018 286.76 510.112 288.12C509.205 289.48 507.978 290.533 506.432 291.28C504.885 292.027 503.152 292.4 501.232 292.4ZM500.952 288.32C502.018 288.32 502.965 288.133 503.792 287.76C504.618 287.36 505.258 286.8 505.712 286.08C506.192 285.36 506.432 284.52 506.432 283.56C506.432 282.093 505.925 280.933 504.912 280.08C503.898 279.227 502.538 278.8 500.832 278.8C499.712 278.8 498.725 279.013 497.872 279.44C497.045 279.84 496.378 280.4 495.872 281.12C495.392 281.84 495.152 282.667 495.152 283.6C495.152 284.453 495.378 285.24 495.832 285.96C496.285 286.68 496.938 287.253 497.792 287.68C498.672 288.107 499.725 288.32 500.952 288.32ZM514.78 298.04L517.1 289.2L517.78 292.16C516.847 292.16 516.06 291.88 515.42 291.32C514.807 290.733 514.5 289.947 514.5 288.96C514.5 287.947 514.807 287.147 515.42 286.56C516.06 285.947 516.834 285.64 517.74 285.64C518.674 285.64 519.447 285.947 520.06 286.56C520.674 287.173 520.98 287.973 520.98 288.96C520.98 289.227 520.954 289.52 520.9 289.84C520.847 290.133 520.754 290.48 520.62 290.88C520.514 291.28 520.327 291.787 520.06 292.4L518.02 298.04H514.78ZM537.401 292V264H541.681L553.921 284.44H551.681L563.721 264H568.001L568.041 292H563.121L563.081 271.72H564.121L553.881 288.8H551.561L541.161 271.72H542.361V292H537.401ZM584.724 292.28C582.537 292.28 580.59 291.813 578.884 290.88C577.177 289.92 575.83 288.613 574.844 286.96C573.857 285.307 573.364 283.427 573.364 281.32C573.364 279.187 573.857 277.307 574.844 275.68C575.83 274.027 577.177 272.733 578.884 271.8C580.59 270.867 582.537 270.4 584.724 270.4C586.937 270.4 588.897 270.867 590.604 271.8C592.337 272.733 593.684 274.013 594.644 275.64C595.63 277.267 596.124 279.16 596.124 281.32C596.124 283.427 595.63 285.307 594.644 286.96C593.684 288.613 592.337 289.92 590.604 290.88C588.897 291.813 586.937 292.28 584.724 292.28ZM584.724 288C585.95 288 587.044 287.733 588.004 287.2C588.964 286.667 589.71 285.893 590.244 284.88C590.804 283.867 591.084 282.68 591.084 281.32C591.084 279.933 590.804 278.747 590.244 277.76C589.71 276.747 588.964 275.973 588.004 275.44C587.044 274.907 585.964 274.64 584.764 274.64C583.537 274.64 582.444 274.907 581.484 275.44C580.55 275.973 579.804 276.747 579.244 277.76C578.684 278.747 578.404 279.933 578.404 281.32C578.404 282.68 578.684 283.867 579.244 284.88C579.804 285.893 580.55 286.667 581.484 287.2C582.444 287.733 583.524 288 584.724 288ZM607.505 292.28C605.718 292.28 603.998 292.053 602.345 291.6C600.718 291.12 599.425 290.547 598.465 289.88L600.385 286.08C601.345 286.693 602.492 287.2 603.825 287.6C605.158 288 606.492 288.2 607.825 288.2C609.398 288.2 610.532 287.987 611.225 287.56C611.945 287.133 612.305 286.56 612.305 285.84C612.305 285.253 612.065 284.813 611.585 284.52C611.105 284.2 610.478 283.96 609.705 283.8C608.932 283.64 608.065 283.493 607.105 283.36C606.172 283.227 605.225 283.053 604.265 282.84C603.332 282.6 602.478 282.267 601.705 281.84C600.932 281.387 600.305 280.787 599.825 280.04C599.345 279.293 599.105 278.307 599.105 277.08C599.105 275.72 599.492 274.547 600.265 273.56C601.038 272.547 602.118 271.773 603.505 271.24C604.918 270.68 606.585 270.4 608.505 270.4C609.945 270.4 611.398 270.56 612.865 270.88C614.332 271.2 615.545 271.653 616.505 272.24L614.585 276.04C613.572 275.427 612.545 275.013 611.505 274.8C610.492 274.56 609.478 274.44 608.465 274.44C606.945 274.44 605.812 274.667 605.065 275.12C604.345 275.573 603.985 276.147 603.985 276.84C603.985 277.48 604.225 277.96 604.705 278.28C605.185 278.6 605.812 278.853 606.585 279.04C607.358 279.227 608.212 279.387 609.145 279.52C610.105 279.627 611.052 279.8 611.985 280.04C612.918 280.28 613.772 280.613 614.545 281.04C615.345 281.44 615.985 282.013 616.465 282.76C616.945 283.507 617.185 284.48 617.185 285.68C617.185 287.013 616.785 288.173 615.985 289.16C615.212 290.147 614.105 290.92 612.665 291.48C611.225 292.013 609.505 292.28 607.505 292.28ZM631.291 292.28C629.051 292.28 627.051 291.813 625.291 290.88C623.558 289.92 622.198 288.613 621.211 286.96C620.224 285.307 619.731 283.427 619.731 281.32C619.731 279.187 620.224 277.307 621.211 275.68C622.198 274.027 623.558 272.733 625.291 271.8C627.051 270.867 629.051 270.4 631.291 270.4C633.371 270.4 635.198 270.827 636.771 271.68C638.371 272.507 639.584 273.733 640.411 275.36L636.571 277.6C635.931 276.587 635.144 275.84 634.211 275.36C633.304 274.88 632.318 274.64 631.251 274.64C630.024 274.64 628.918 274.907 627.931 275.44C626.944 275.973 626.171 276.747 625.611 277.76C625.051 278.747 624.771 279.933 624.771 281.32C624.771 282.707 625.051 283.907 625.611 284.92C626.171 285.907 626.944 286.667 627.931 287.2C628.918 287.733 630.024 288 631.251 288C632.318 288 633.304 287.76 634.211 287.28C635.144 286.8 635.931 286.053 636.571 285.04L640.411 287.28C639.584 288.88 638.371 290.12 636.771 291C635.198 291.853 633.371 292.28 631.291 292.28ZM654.021 292.28C651.834 292.28 649.887 291.813 648.181 290.88C646.474 289.92 645.127 288.613 644.141 286.96C643.154 285.307 642.661 283.427 642.661 281.32C642.661 279.187 643.154 277.307 644.141 275.68C645.127 274.027 646.474 272.733 648.181 271.8C649.887 270.867 651.834 270.4 654.021 270.4C656.234 270.4 658.194 270.867 659.901 271.8C661.634 272.733 662.981 274.013 663.941 275.64C664.927 277.267 665.421 279.16 665.421 281.32C665.421 283.427 664.927 285.307 663.941 286.96C662.981 288.613 661.634 289.92 659.901 290.88C658.194 291.813 656.234 292.28 654.021 292.28ZM654.021 288C655.247 288 656.341 287.733 657.301 287.2C658.261 286.667 659.007 285.893 659.541 284.88C660.101 283.867 660.381 282.68 660.381 281.32C660.381 279.933 660.101 278.747 659.541 277.76C659.007 276.747 658.261 275.973 657.301 275.44C656.341 274.907 655.261 274.64 654.061 274.64C652.834 274.64 651.741 274.907 650.781 275.44C649.847 275.973 649.101 276.747 648.541 277.76C647.981 278.747 647.701 279.933 647.701 281.32C647.701 282.68 647.981 283.867 648.541 284.88C649.101 285.893 649.847 286.667 650.781 287.2C651.741 287.733 652.821 288 654.021 288ZM674.336 292L666.496 270.64H671.216L677.936 289.48H675.696L682.736 270.64H686.936L693.776 289.48H691.576L698.496 270.64H702.936L695.056 292H690.256L684.016 275.32H685.496L679.136 292H674.336ZM703.726 298.04L706.046 289.2L706.726 292.16C705.792 292.16 705.006 291.88 704.366 291.32C703.752 290.733 703.446 289.947 703.446 288.96C703.446 287.947 703.752 287.147 704.366 286.56C705.006 285.947 705.779 285.64 706.686 285.64C707.619 285.64 708.392 285.947 709.006 286.56C709.619 287.173 709.926 287.973 709.926 288.96C709.926 289.227 709.899 289.52 709.846 289.84C709.792 290.133 709.699 290.48 709.566 290.88C709.459 291.28 709.272 291.787 709.006 292.4L706.966 298.04H703.726ZM35.76 336V308H47.28C49.76 308 51.88 308.4 53.64 309.2C55.4267 310 56.8 311.147 57.76 312.64C58.72 314.133 59.2 315.907 59.2 317.96C59.2 320.013 58.72 321.787 57.76 323.28C56.8 324.747 55.4267 325.88 53.64 326.68C51.88 327.453 49.76 327.84 47.28 327.84H38.64L40.96 325.48V336H35.76ZM54.08 336L47 325.84H52.56L59.68 336H54.08ZM40.96 326.04L38.64 323.56H47.04C49.3333 323.56 51.0533 323.067 52.2 322.08C53.3733 321.093 53.96 319.72 53.96 317.96C53.96 316.173 53.3733 314.8 52.2 313.84C51.0533 312.88 49.3333 312.4 47.04 312.4H38.64L40.96 309.84V326.04ZM73.5778 336.28C71.7645 336.28 70.1645 335.947 68.7778 335.28C67.3911 334.587 66.3111 333.547 65.5378 332.16C64.7645 330.747 64.3778 328.973 64.3778 326.84V314.64H69.3778V326.16C69.3778 328.08 69.8045 329.52 70.6578 330.48C71.5378 331.413 72.7778 331.88 74.3778 331.88C75.5511 331.88 76.5645 331.64 77.4178 331.16C78.2978 330.68 78.9778 329.96 79.4578 329C79.9645 328.04 80.2178 326.853 80.2178 325.44V314.64H85.2178V336H80.4578V330.24L81.2978 332C80.5778 333.387 79.5245 334.453 78.1378 335.2C76.7511 335.92 75.2311 336.28 73.5778 336.28ZM98.3644 336.28C96.5777 336.28 94.8577 336.053 93.2044 335.6C91.5777 335.12 90.2844 334.547 89.3244 333.88L91.2444 330.08C92.2044 330.693 93.351 331.2 94.6844 331.6C96.0177 332 97.351 332.2 98.6844 332.2C100.258 332.2 101.391 331.987 102.084 331.56C102.804 331.133 103.164 330.56 103.164 329.84C103.164 329.253 102.924 328.813 102.444 328.52C101.964 328.2 101.338 327.96 100.564 327.8C99.791 327.64 98.9244 327.493 97.9644 327.36C97.031 327.227 96.0844 327.053 95.1244 326.84C94.191 326.6 93.3377 326.267 92.5644 325.84C91.791 325.387 91.1644 324.787 90.6844 324.04C90.2044 323.293 89.9644 322.307 89.9644 321.08C89.9644 319.72 90.351 318.547 91.1244 317.56C91.8977 316.547 92.9777 315.773 94.3644 315.24C95.7777 314.68 97.4444 314.4 99.3644 314.4C100.804 314.4 102.258 314.56 103.724 314.88C105.191 315.2 106.404 315.653 107.364 316.24L105.444 320.04C104.431 319.427 103.404 319.013 102.364 318.8C101.351 318.56 100.338 318.44 99.3244 318.44C97.8044 318.44 96.671 318.667 95.9244 319.12C95.2044 319.573 94.8444 320.147 94.8444 320.84C94.8444 321.48 95.0844 321.96 95.5644 322.28C96.0444 322.6 96.671 322.853 97.4444 323.04C98.2177 323.227 99.071 323.387 100.004 323.52C100.964 323.627 101.911 323.8 102.844 324.04C103.778 324.28 104.631 324.613 105.404 325.04C106.204 325.44 106.844 326.013 107.324 326.76C107.804 327.507 108.044 328.48 108.044 329.68C108.044 331.013 107.644 332.173 106.844 333.16C106.071 334.147 104.964 334.92 103.524 335.48C102.084 336.013 100.364 336.28 98.3644 336.28ZM118.95 336.28C117.164 336.28 115.444 336.053 113.79 335.6C112.164 335.12 110.87 334.547 109.91 333.88L111.83 330.08C112.79 330.693 113.937 331.2 115.27 331.6C116.604 332 117.937 332.2 119.27 332.2C120.844 332.2 121.977 331.987 122.67 331.56C123.39 331.133 123.75 330.56 123.75 329.84C123.75 329.253 123.51 328.813 123.03 328.52C122.55 328.2 121.924 327.96 121.15 327.8C120.377 327.64 119.51 327.493 118.55 327.36C117.617 327.227 116.67 327.053 115.71 326.84C114.777 326.6 113.924 326.267 113.15 325.84C112.377 325.387 111.75 324.787 111.27 324.04C110.79 323.293 110.55 322.307 110.55 321.08C110.55 319.72 110.937 318.547 111.71 317.56C112.484 316.547 113.564 315.773 114.95 315.24C116.364 314.68 118.03 314.4 119.95 314.4C121.39 314.4 122.844 314.56 124.31 314.88C125.777 315.2 126.99 315.653 127.95 316.24L126.03 320.04C125.017 319.427 123.99 319.013 122.95 318.8C121.937 318.56 120.924 318.44 119.91 318.44C118.39 318.44 117.257 318.667 116.51 319.12C115.79 319.573 115.43 320.147 115.43 320.84C115.43 321.48 115.67 321.96 116.15 322.28C116.63 322.6 117.257 322.853 118.03 323.04C118.804 323.227 119.657 323.387 120.59 323.52C121.55 323.627 122.497 323.8 123.43 324.04C124.364 324.28 125.217 324.613 125.99 325.04C126.79 325.44 127.43 326.013 127.91 326.76C128.39 327.507 128.63 328.48 128.63 329.68C128.63 331.013 128.23 332.173 127.43 333.16C126.657 334.147 125.55 334.92 124.11 335.48C122.67 336.013 120.95 336.28 118.95 336.28ZM132.936 336V314.64H137.936V336H132.936ZM135.456 311.12C134.523 311.12 133.75 310.827 133.136 310.24C132.55 309.653 132.256 308.947 132.256 308.12C132.256 307.267 132.55 306.56 133.136 306C133.75 305.413 134.523 305.12 135.456 305.12C136.39 305.12 137.15 305.4 137.736 305.96C138.35 306.493 138.656 307.173 138.656 308C138.656 308.88 138.363 309.627 137.776 310.24C137.19 310.827 136.416 311.12 135.456 311.12ZM157.659 336V331.68L157.379 330.76V323.2C157.379 321.733 156.939 320.6 156.059 319.8C155.179 318.973 153.845 318.56 152.059 318.56C150.859 318.56 149.672 318.747 148.499 319.12C147.352 319.493 146.379 320.013 145.579 320.68L143.619 317.04C144.765 316.16 146.125 315.507 147.699 315.08C149.299 314.627 150.952 314.4 152.659 314.4C155.752 314.4 158.139 315.147 159.819 316.64C161.525 318.107 162.379 320.387 162.379 323.48V336H157.659ZM150.939 336.28C149.339 336.28 147.939 336.013 146.739 335.48C145.539 334.92 144.605 334.16 143.939 333.2C143.299 332.213 142.979 331.107 142.979 329.88C142.979 328.68 143.259 327.6 143.819 326.64C144.405 325.68 145.352 324.92 146.659 324.36C147.965 323.8 149.699 323.52 151.859 323.52H158.059V326.84H152.219C150.512 326.84 149.365 327.12 148.779 327.68C148.192 328.213 147.899 328.88 147.899 329.68C147.899 330.587 148.259 331.307 148.979 331.84C149.699 332.373 150.699 332.64 151.979 332.64C153.205 332.64 154.299 332.36 155.259 331.8C156.245 331.24 156.952 330.413 157.379 329.32L158.219 332.32C157.739 333.573 156.872 334.547 155.619 335.24C154.392 335.933 152.832 336.28 150.939 336.28ZM167.476 342.04L169.796 333.2L170.476 336.16C169.542 336.16 168.756 335.88 168.116 335.32C167.502 334.733 167.196 333.947 167.196 332.96C167.196 331.947 167.502 331.147 168.116 330.56C168.756 329.947 169.529 329.64 170.436 329.64C171.369 329.64 172.142 329.947 172.756 330.56C173.369 331.173 173.676 331.973 173.676 332.96C173.676 333.227 173.649 333.52 173.596 333.84C173.542 334.133 173.449 334.48 173.316 334.88C173.209 335.28 173.022 335.787 172.756 336.4L170.716 342.04H167.476ZM192.576 336V310L194.856 312.36H186.656V308H197.776V336H192.576ZM207.81 336V310L210.09 312.36H201.89V308H213.01V336H207.81ZM227.845 336.4C225.871 336.4 223.938 336.12 222.045 335.56C220.178 334.973 218.605 334.173 217.325 333.16L219.525 329.12C220.538 329.947 221.765 330.613 223.205 331.12C224.671 331.627 226.191 331.88 227.765 331.88C229.605 331.88 231.045 331.493 232.085 330.72C233.151 329.947 233.685 328.907 233.685 327.6C233.685 326.72 233.458 325.947 233.005 325.28C232.578 324.613 231.805 324.107 230.685 323.76C229.591 323.413 228.085 323.24 226.165 323.24H219.405L220.845 308H237.285V312.36H222.765L225.485 309.88L224.405 321.28L221.685 318.84H227.325C230.098 318.84 232.325 319.213 234.005 319.96C235.711 320.68 236.951 321.693 237.725 323C238.525 324.28 238.925 325.747 238.925 327.4C238.925 329.027 238.525 330.52 237.725 331.88C236.925 333.24 235.698 334.333 234.045 335.16C232.418 335.987 230.351 336.4 227.845 336.4ZM253.604 336.4C251.391 336.4 249.391 335.84 247.604 334.72C245.844 333.6 244.457 331.973 243.444 329.84C242.431 327.68 241.924 325.067 241.924 322C241.924 318.933 242.431 316.333 243.444 314.2C244.457 312.04 245.844 310.4 247.604 309.28C249.391 308.16 251.391 307.6 253.604 307.6C255.844 307.6 257.844 308.16 259.604 309.28C261.364 310.4 262.751 312.04 263.764 314.2C264.804 316.333 265.324 318.933 265.324 322C265.324 325.067 264.804 327.68 263.764 329.84C262.751 331.973 261.364 333.6 259.604 334.72C257.844 335.84 255.844 336.4 253.604 336.4ZM253.604 331.88C254.911 331.88 256.044 331.533 257.004 330.84C257.964 330.12 258.711 329.027 259.244 327.56C259.804 326.093 260.084 324.24 260.084 322C260.084 319.733 259.804 317.88 259.244 316.44C258.711 314.973 257.964 313.893 257.004 313.2C256.044 312.48 254.911 312.12 253.604 312.12C252.351 312.12 251.231 312.48 250.244 313.2C249.284 313.893 248.524 314.973 247.964 316.44C247.431 317.88 247.164 319.733 247.164 322C247.164 324.24 247.431 326.093 247.964 327.56C248.524 329.027 249.284 330.12 250.244 330.84C251.231 331.533 252.351 331.88 253.604 331.88ZM278.278 307.6C280.838 307.6 283.011 308.147 284.798 309.24C286.611 310.307 287.998 311.867 288.958 313.92C289.918 315.973 290.398 318.507 290.398 321.52C290.398 324.72 289.811 327.427 288.638 329.64C287.491 331.853 285.891 333.533 283.838 334.68C281.785 335.827 279.398 336.4 276.678 336.4C275.265 336.4 273.918 336.253 272.638 335.96C271.358 335.667 270.251 335.213 269.318 334.6L271.238 330.68C272.011 331.187 272.851 331.547 273.758 331.76C274.665 331.947 275.598 332.04 276.558 332.04C279.198 332.04 281.291 331.227 282.838 329.6C284.385 327.973 285.158 325.573 285.158 322.4C285.158 321.893 285.145 321.307 285.118 320.64C285.091 319.947 284.998 319.253 284.838 318.56L286.438 320.32C285.985 321.413 285.331 322.333 284.478 323.08C283.625 323.8 282.625 324.347 281.478 324.72C280.331 325.093 279.065 325.28 277.678 325.28C275.865 325.28 274.225 324.933 272.758 324.24C271.318 323.52 270.171 322.52 269.318 321.24C268.465 319.933 268.038 318.413 268.038 316.68C268.038 314.813 268.491 313.213 269.398 311.88C270.305 310.52 271.531 309.467 273.078 308.72C274.651 307.973 276.385 307.6 278.278 307.6ZM278.558 311.68C277.491 311.68 276.545 311.88 275.718 312.28C274.891 312.653 274.238 313.2 273.758 313.92C273.305 314.613 273.078 315.453 273.078 316.44C273.078 317.907 273.585 319.067 274.598 319.92C275.611 320.773 276.971 321.2 278.678 321.2C279.798 321.2 280.785 321 281.638 320.6C282.491 320.173 283.158 319.6 283.638 318.88C284.118 318.133 284.358 317.307 284.358 316.4C284.358 315.52 284.131 314.733 283.678 314.04C283.225 313.32 282.571 312.747 281.718 312.32C280.865 311.893 279.811 311.68 278.558 311.68ZM302.326 336.4C300.352 336.4 298.419 336.12 296.526 335.56C294.659 334.973 293.086 334.173 291.806 333.16L294.046 329.12C295.059 329.947 296.286 330.613 297.726 331.12C299.166 331.627 300.672 331.88 302.246 331.88C304.112 331.88 305.566 331.507 306.606 330.76C307.646 329.987 308.166 328.947 308.166 327.64C308.166 326.36 307.686 325.347 306.726 324.6C305.766 323.853 304.219 323.48 302.086 323.48H299.526V319.92L307.526 310.4L308.206 312.36H293.166V308H312.246V311.48L304.246 321L301.526 319.4H303.086C306.526 319.4 309.099 320.173 310.806 321.72C312.539 323.24 313.406 325.2 313.406 327.6C313.406 329.173 313.006 330.627 312.206 331.96C311.406 333.293 310.179 334.373 308.526 335.2C306.899 336 304.832 336.4 302.326 336.4Z" fill="#282828"/>
<path d="M812 194C812 187.373 817.373 182 824 182H1348C1354.63 182 1360 187.373 1360 194V364C1360 370.627 1354.63 376 1348 376H824C817.373 376 812 370.627 812 364V194Z" fill="#F1F3F4"/>
<path d="M849.32 234L844.64 220H846.7L851 232.92H849.96L854.42 220H856.26L860.62 232.92H859.62L863.98 220H865.88L861.2 234H859.1L855.02 222.02H855.56L851.46 234H849.32ZM871.786 234.12C870.719 234.12 869.772 233.887 868.946 233.42C868.119 232.953 867.466 232.313 866.986 231.5C866.506 230.673 866.266 229.74 866.266 228.7C866.266 227.647 866.506 226.713 866.986 225.9C867.466 225.087 868.119 224.453 868.946 224C869.772 223.533 870.719 223.3 871.786 223.3C872.839 223.3 873.779 223.533 874.606 224C875.446 224.453 876.099 225.087 876.566 225.9C877.046 226.7 877.286 227.633 877.286 228.7C877.286 229.753 877.046 230.687 876.566 231.5C876.099 232.313 875.446 232.953 874.606 233.42C873.779 233.887 872.839 234.12 871.786 234.12ZM871.786 232.44C872.466 232.44 873.072 232.287 873.606 231.98C874.152 231.673 874.579 231.24 874.886 230.68C875.192 230.107 875.346 229.447 875.346 228.7C875.346 227.94 875.192 227.287 874.886 226.74C874.579 226.18 874.152 225.747 873.606 225.44C873.072 225.133 872.466 224.98 871.786 224.98C871.106 224.98 870.499 225.133 869.966 225.44C869.432 225.747 869.006 226.18 868.686 226.74C868.366 227.287 868.206 227.94 868.206 228.7C868.206 229.447 868.366 230.107 868.686 230.68C869.006 231.24 869.432 231.673 869.966 231.98C870.499 232.287 871.106 232.44 871.786 232.44ZM879.941 234V223.4H881.781V226.28L881.601 225.56C881.894 224.827 882.388 224.267 883.081 223.88C883.774 223.493 884.628 223.3 885.641 223.3V225.16C885.561 225.147 885.481 225.14 885.401 225.14C885.334 225.14 885.268 225.14 885.201 225.14C884.174 225.14 883.361 225.447 882.761 226.06C882.161 226.673 881.861 227.56 881.861 228.72V234H879.941ZM889.568 231.44L889.608 228.98L895.708 223.4H898.028L893.348 228L892.308 228.88L889.568 231.44ZM888.008 234V219.16H889.928V234H888.008ZM896.108 234L891.948 228.84L893.188 227.3L898.468 234H896.108ZM900.332 234V223.4H902.252V234H900.332ZM901.292 221.36C900.918 221.36 900.605 221.24 900.352 221C900.112 220.76 899.992 220.467 899.992 220.12C899.992 219.76 900.112 219.46 900.352 219.22C900.605 218.98 900.918 218.86 901.292 218.86C901.665 218.86 901.972 218.98 902.212 219.22C902.465 219.447 902.592 219.733 902.592 220.08C902.592 220.44 902.472 220.747 902.232 221C901.992 221.24 901.678 221.36 901.292 221.36ZM911.578 223.3C912.444 223.3 913.204 223.467 913.858 223.8C914.524 224.133 915.044 224.64 915.418 225.32C915.791 226 915.978 226.86 915.978 227.9V234H914.058V228.12C914.058 227.093 913.804 226.32 913.298 225.8C912.804 225.28 912.104 225.02 911.198 225.02C910.518 225.02 909.924 225.153 909.418 225.42C908.911 225.687 908.518 226.08 908.238 226.6C907.971 227.12 907.838 227.767 907.838 228.54V234H905.918V223.4H907.758V226.26L907.458 225.5C907.804 224.807 908.338 224.267 909.058 223.88C909.778 223.493 910.618 223.3 911.578 223.3ZM924.171 238C923.198 238 922.251 237.86 921.331 237.58C920.424 237.313 919.684 236.927 919.111 236.42L920.031 234.94C920.524 235.367 921.131 235.7 921.851 235.94C922.571 236.193 923.324 236.32 924.111 236.32C925.364 236.32 926.284 236.027 926.871 235.44C927.458 234.853 927.751 233.96 927.751 232.76V230.52L927.951 228.42L927.851 226.3V223.4H929.671V232.56C929.671 234.427 929.204 235.8 928.271 236.68C927.338 237.56 925.971 238 924.171 238ZM923.931 233.56C922.904 233.56 921.984 233.347 921.171 232.92C920.371 232.48 919.731 231.873 919.251 231.1C918.784 230.327 918.551 229.433 918.551 228.42C918.551 227.393 918.784 226.5 919.251 225.74C919.731 224.967 920.371 224.367 921.171 223.94C921.984 223.513 922.904 223.3 923.931 223.3C924.838 223.3 925.664 223.487 926.411 223.86C927.158 224.22 927.751 224.78 928.191 225.54C928.644 226.3 928.871 227.26 928.871 228.42C928.871 229.567 928.644 230.52 928.191 231.28C927.751 232.04 927.158 232.613 926.411 233C925.664 233.373 924.838 233.56 923.931 233.56ZM924.151 231.88C924.858 231.88 925.484 231.733 926.031 231.44C926.578 231.147 927.004 230.74 927.311 230.22C927.631 229.7 927.791 229.1 927.791 228.42C927.791 227.74 927.631 227.14 927.311 226.62C927.004 226.1 926.578 225.7 926.031 225.42C925.484 225.127 924.858 224.98 924.151 224.98C923.444 224.98 922.811 225.127 922.251 225.42C921.704 225.7 921.271 226.1 920.951 226.62C920.644 227.14 920.491 227.74 920.491 228.42C920.491 229.1 920.644 229.7 920.951 230.22C921.271 230.74 921.704 231.147 922.251 231.44C922.811 231.733 923.444 231.88 924.151 231.88ZM949.031 220H951.031V234H949.031V220ZM940.991 234H938.991V220H940.991V234ZM949.211 227.76H940.791V226.02H949.211V227.76ZM959.481 234.12C958.414 234.12 957.468 233.887 956.641 233.42C955.814 232.953 955.161 232.313 954.681 231.5C954.201 230.673 953.961 229.74 953.961 228.7C953.961 227.647 954.201 226.713 954.681 225.9C955.161 225.087 955.814 224.453 956.641 224C957.468 223.533 958.414 223.3 959.481 223.3C960.534 223.3 961.474 223.533 962.301 224C963.141 224.453 963.794 225.087 964.261 225.9C964.741 226.7 964.981 227.633 964.981 228.7C964.981 229.753 964.741 230.687 964.261 231.5C963.794 232.313 963.141 232.953 962.301 233.42C961.474 233.887 960.534 234.12 959.481 234.12ZM959.481 232.44C960.161 232.44 960.768 232.287 961.301 231.98C961.848 231.673 962.274 231.24 962.581 230.68C962.888 230.107 963.041 229.447 963.041 228.7C963.041 227.94 962.888 227.287 962.581 226.74C962.274 226.18 961.848 225.747 961.301 225.44C960.768 225.133 960.161 224.98 959.481 224.98C958.801 224.98 958.194 225.133 957.661 225.44C957.128 225.747 956.701 226.18 956.381 226.74C956.061 227.287 955.901 227.94 955.901 228.7C955.901 229.447 956.061 230.107 956.381 230.68C956.701 231.24 957.128 231.673 957.661 231.98C958.194 232.287 958.801 232.44 959.481 232.44ZM972.096 234.12C971.19 234.12 970.39 233.953 969.696 233.62C969.016 233.287 968.483 232.78 968.096 232.1C967.723 231.407 967.536 230.54 967.536 229.5V223.4H969.456V229.28C969.456 230.32 969.703 231.1 970.196 231.62C970.703 232.14 971.41 232.4 972.316 232.4C972.983 232.4 973.563 232.267 974.056 232C974.55 231.72 974.93 231.32 975.196 230.8C975.463 230.267 975.596 229.627 975.596 228.88V223.4H977.516V234H975.696V231.14L975.996 231.9C975.65 232.607 975.13 233.153 974.436 233.54C973.743 233.927 972.963 234.12 972.096 234.12ZM981.172 234V223.4H983.012V226.28L982.832 225.56C983.125 224.827 983.618 224.267 984.312 223.88C985.005 223.493 985.858 223.3 986.872 223.3V225.16C986.792 225.147 986.712 225.14 986.632 225.14C986.565 225.14 986.498 225.14 986.432 225.14C985.405 225.14 984.592 225.447 983.992 226.06C983.392 226.673 983.092 227.56 983.092 228.72V234H981.172ZM992.395 234.12C991.515 234.12 990.675 234 989.875 233.76C989.088 233.52 988.468 233.227 988.015 232.88L988.815 231.36C989.268 231.667 989.828 231.927 990.495 232.14C991.162 232.353 991.842 232.46 992.535 232.46C993.428 232.46 994.068 232.333 994.455 232.08C994.855 231.827 995.055 231.473 995.055 231.02C995.055 230.687 994.935 230.427 994.695 230.24C994.455 230.053 994.135 229.913 993.735 229.82C993.348 229.727 992.915 229.647 992.435 229.58C991.955 229.5 991.475 229.407 990.995 229.3C990.515 229.18 990.075 229.02 989.675 228.82C989.275 228.607 988.955 228.32 988.715 227.96C988.475 227.587 988.355 227.093 988.355 226.48C988.355 225.84 988.535 225.28 988.895 224.8C989.255 224.32 989.762 223.953 990.415 223.7C991.082 223.433 991.868 223.3 992.775 223.3C993.468 223.3 994.168 223.387 994.875 223.56C995.595 223.72 996.182 223.953 996.635 224.26L995.815 225.78C995.335 225.46 994.835 225.24 994.315 225.12C993.795 225 993.275 224.94 992.755 224.94C991.915 224.94 991.288 225.08 990.875 225.36C990.462 225.627 990.255 225.973 990.255 226.4C990.255 226.76 990.375 227.04 990.615 227.24C990.868 227.427 991.188 227.573 991.575 227.68C991.975 227.787 992.415 227.88 992.895 227.96C993.375 228.027 993.855 228.12 994.335 228.24C994.815 228.347 995.248 228.5 995.635 228.7C996.035 228.9 996.355 229.18 996.595 229.54C996.848 229.9 996.975 230.38 996.975 230.98C996.975 231.62 996.788 232.173 996.415 232.64C996.042 233.107 995.515 233.473 994.835 233.74C994.155 233.993 993.342 234.12 992.395 234.12Z" fill="#8B8B8B"/>
<path d="M845.4 292V288.52L856.52 277.96C857.453 277.08 858.147 276.307 858.6 275.64C859.053 274.973 859.347 274.36 859.48 273.8C859.64 273.213 859.72 272.667 859.72 272.16C859.72 270.88 859.28 269.893 858.4 269.2C857.52 268.48 856.227 268.12 854.52 268.12C853.16 268.12 851.92 268.36 850.8 268.84C849.707 269.32 848.76 270.053 847.96 271.04L844.32 268.24C845.413 266.773 846.88 265.64 848.72 264.84C850.587 264.013 852.667 263.6 854.96 263.6C856.987 263.6 858.747 263.933 860.24 264.6C861.76 265.24 862.92 266.16 863.72 267.36C864.547 268.56 864.96 269.987 864.96 271.64C864.96 272.547 864.84 273.453 864.6 274.36C864.36 275.24 863.907 276.173 863.24 277.16C862.573 278.147 861.6 279.253 860.32 280.48L850.76 289.56L849.68 287.6H866.04V292H845.4ZM868.055 285.64V282.04L881.855 264H887.415L873.815 282.04L871.215 281.24H893.415V285.64H868.055ZM883.415 292V285.64L883.575 281.24V275.6H888.455V292H883.415ZM920.298 270.4C922.005 270.4 923.525 270.733 924.858 271.4C926.218 272.067 927.285 273.093 928.058 274.48C928.832 275.84 929.218 277.6 929.218 279.76V292H924.218V280.4C924.218 278.507 923.765 277.093 922.858 276.16C921.978 275.227 920.738 274.76 919.138 274.76C917.965 274.76 916.925 275 916.018 275.48C915.112 275.96 914.405 276.68 913.898 277.64C913.418 278.573 913.178 279.76 913.178 281.2V292H908.178V262.32H913.178V276.4L912.098 274.64C912.845 273.28 913.925 272.24 915.338 271.52C916.778 270.773 918.432 270.4 920.298 270.4ZM945.2 292.28C943.014 292.28 941.067 291.813 939.36 290.88C937.654 289.92 936.307 288.613 935.32 286.96C934.334 285.307 933.84 283.427 933.84 281.32C933.84 279.187 934.334 277.307 935.32 275.68C936.307 274.027 937.654 272.733 939.36 271.8C941.067 270.867 943.014 270.4 945.2 270.4C947.414 270.4 949.374 270.867 951.08 271.8C952.814 272.733 954.16 274.013 955.12 275.64C956.107 277.267 956.6 279.16 956.6 281.32C956.6 283.427 956.107 285.307 955.12 286.96C954.16 288.613 952.814 289.92 951.08 290.88C949.374 291.813 947.414 292.28 945.2 292.28ZM945.2 288C946.427 288 947.52 287.733 948.48 287.2C949.44 286.667 950.187 285.893 950.72 284.88C951.28 283.867 951.56 282.68 951.56 281.32C951.56 279.933 951.28 278.747 950.72 277.76C950.187 276.747 949.44 275.973 948.48 275.44C947.52 274.907 946.44 274.64 945.24 274.64C944.014 274.64 942.92 274.907 941.96 275.44C941.027 275.973 940.28 276.747 939.72 277.76C939.16 278.747 938.88 279.933 938.88 281.32C938.88 282.68 939.16 283.867 939.72 284.88C940.28 285.893 941.027 286.667 941.96 287.2C942.92 287.733 944 288 945.2 288ZM970.422 292.28C968.608 292.28 967.008 291.947 965.622 291.28C964.235 290.587 963.155 289.547 962.382 288.16C961.608 286.747 961.222 284.973 961.222 282.84V270.64H966.222V282.16C966.222 284.08 966.648 285.52 967.502 286.48C968.382 287.413 969.622 287.88 971.222 287.88C972.395 287.88 973.408 287.64 974.262 287.16C975.142 286.68 975.822 285.96 976.302 285C976.808 284.04 977.062 282.853 977.062 281.44V270.64H982.062V292H977.302V286.24L978.142 288C977.422 289.387 976.368 290.453 974.982 291.2C973.595 291.92 972.075 292.28 970.422 292.28ZM988.608 292V270.64H993.368V276.52L992.808 274.8C993.448 273.36 994.448 272.267 995.808 271.52C997.195 270.773 998.915 270.4 1000.97 270.4V275.16C1000.75 275.107 1000.55 275.08 1000.37 275.08C1000.18 275.053 999.995 275.04 999.808 275.04C997.915 275.04 996.408 275.6 995.288 276.72C994.168 277.813 993.608 279.453 993.608 281.64V292H988.608ZM1012.01 292.28C1010.22 292.28 1008.5 292.053 1006.85 291.6C1005.22 291.12 1003.93 290.547 1002.97 289.88L1004.89 286.08C1005.85 286.693 1006.99 287.2 1008.33 287.6C1009.66 288 1010.99 288.2 1012.33 288.2C1013.9 288.2 1015.03 287.987 1015.73 287.56C1016.45 287.133 1016.81 286.56 1016.81 285.84C1016.81 285.253 1016.57 284.813 1016.09 284.52C1015.61 284.2 1014.98 283.96 1014.21 283.8C1013.43 283.64 1012.57 283.493 1011.61 283.36C1010.67 283.227 1009.73 283.053 1008.77 282.84C1007.83 282.6 1006.98 282.267 1006.21 281.84C1005.43 281.387 1004.81 280.787 1004.33 280.04C1003.85 279.293 1003.61 278.307 1003.61 277.08C1003.61 275.72 1003.99 274.547 1004.76 273.56C1005.54 272.547 1006.62 271.773 1008 271.24C1009.42 270.68 1011.09 270.4 1013.01 270.4C1014.45 270.4 1015.9 270.56 1017.37 270.88C1018.83 271.2 1020.05 271.653 1021.01 272.24L1019.09 276.04C1018.07 275.427 1017.05 275.013 1016.01 274.8C1014.99 274.56 1013.98 274.44 1012.97 274.44C1011.45 274.44 1010.31 274.667 1009.57 275.12C1008.85 275.573 1008.49 276.147 1008.49 276.84C1008.49 277.48 1008.73 277.96 1009.21 278.28C1009.69 278.6 1010.31 278.853 1011.09 279.04C1011.86 279.227 1012.71 279.387 1013.65 279.52C1014.61 279.627 1015.55 279.8 1016.49 280.04C1017.42 280.28 1018.27 280.613 1019.05 281.04C1019.85 281.44 1020.49 282.013 1020.97 282.76C1021.45 283.507 1021.69 284.48 1021.69 285.68C1021.69 287.013 1021.29 288.173 1020.49 289.16C1019.71 290.147 1018.61 290.92 1017.17 291.48C1015.73 292.013 1014.01 292.28 1012.01 292.28ZM1050.21 292V287.68L1049.93 286.76V279.2C1049.93 277.733 1049.49 276.6 1048.61 275.8C1047.73 274.973 1046.39 274.56 1044.61 274.56C1043.41 274.56 1042.22 274.747 1041.05 275.12C1039.9 275.493 1038.93 276.013 1038.13 276.68L1036.17 273.04C1037.31 272.16 1038.67 271.507 1040.25 271.08C1041.85 270.627 1043.5 270.4 1045.21 270.4C1048.3 270.4 1050.69 271.147 1052.37 272.64C1054.07 274.107 1054.93 276.387 1054.93 279.48V292H1050.21ZM1043.49 292.28C1041.89 292.28 1040.49 292.013 1039.29 291.48C1038.09 290.92 1037.15 290.16 1036.49 289.2C1035.85 288.213 1035.53 287.107 1035.53 285.88C1035.53 284.68 1035.81 283.6 1036.37 282.64C1036.95 281.68 1037.9 280.92 1039.21 280.36C1040.51 279.8 1042.25 279.52 1044.41 279.52H1050.61V282.84H1044.77C1043.06 282.84 1041.91 283.12 1041.33 283.68C1040.74 284.213 1040.45 284.88 1040.45 285.68C1040.45 286.587 1040.81 287.307 1041.53 287.84C1042.25 288.373 1043.25 288.64 1044.53 288.64C1045.75 288.64 1046.85 288.36 1047.81 287.8C1048.79 287.24 1049.5 286.413 1049.93 285.32L1050.77 288.32C1050.29 289.573 1049.42 290.547 1048.17 291.24C1046.94 291.933 1045.38 292.28 1043.49 292.28ZM1081.44 292.28C1079.38 292.28 1077.53 291.827 1075.88 290.92C1074.25 289.987 1072.97 288.707 1072.04 287.08C1071.1 285.453 1070.64 283.533 1070.64 281.32C1070.64 279.107 1071.1 277.187 1072.04 275.56C1072.97 273.933 1074.25 272.667 1075.88 271.76C1077.53 270.853 1079.38 270.4 1081.44 270.4C1083.22 270.4 1084.82 270.8 1086.24 271.6C1087.65 272.373 1088.77 273.56 1089.6 275.16C1090.42 276.76 1090.84 278.813 1090.84 281.32C1090.84 283.8 1090.44 285.853 1089.64 287.48C1088.84 289.08 1087.73 290.28 1086.32 291.08C1084.9 291.88 1083.28 292.28 1081.44 292.28ZM1082.04 288C1083.24 288 1084.3 287.733 1085.24 287.2C1086.2 286.667 1086.96 285.893 1087.52 284.88C1088.1 283.867 1088.4 282.68 1088.4 281.32C1088.4 279.933 1088.1 278.747 1087.52 277.76C1086.96 276.747 1086.2 275.973 1085.24 275.44C1084.3 274.907 1083.24 274.64 1082.04 274.64C1080.84 274.64 1079.76 274.907 1078.8 275.44C1077.86 275.973 1077.1 276.747 1076.52 277.76C1075.96 278.747 1075.68 279.933 1075.68 281.32C1075.68 282.68 1075.96 283.867 1076.52 284.88C1077.1 285.893 1077.86 286.667 1078.8 287.2C1079.76 287.733 1080.84 288 1082.04 288ZM1088.52 292V286.96L1088.72 281.28L1088.32 275.6V262.32H1093.28V292H1088.52ZM1113.02 292V287.68L1112.74 286.76V279.2C1112.74 277.733 1112.3 276.6 1111.42 275.8C1110.54 274.973 1109.2 274.56 1107.42 274.56C1106.22 274.56 1105.03 274.747 1103.86 275.12C1102.71 275.493 1101.74 276.013 1100.94 276.68L1098.98 273.04C1100.12 272.16 1101.48 271.507 1103.06 271.08C1104.66 270.627 1106.31 270.4 1108.02 270.4C1111.11 270.4 1113.5 271.147 1115.18 272.64C1116.88 274.107 1117.74 276.387 1117.74 279.48V292H1113.02ZM1106.3 292.28C1104.7 292.28 1103.3 292.013 1102.1 291.48C1100.9 290.92 1099.96 290.16 1099.3 289.2C1098.66 288.213 1098.34 287.107 1098.34 285.88C1098.34 284.68 1098.62 283.6 1099.18 282.64C1099.76 281.68 1100.71 280.92 1102.02 280.36C1103.32 279.8 1105.06 279.52 1107.22 279.52H1113.42V282.84H1107.58C1105.87 282.84 1104.72 283.12 1104.14 283.68C1103.55 284.213 1103.26 284.88 1103.26 285.68C1103.26 286.587 1103.62 287.307 1104.34 287.84C1105.06 288.373 1106.06 288.64 1107.34 288.64C1108.56 288.64 1109.66 288.36 1110.62 287.8C1111.6 287.24 1112.31 286.413 1112.74 285.32L1113.58 288.32C1113.1 289.573 1112.23 290.547 1110.98 291.24C1109.75 291.933 1108.19 292.28 1106.3 292.28ZM1125.52 300.04C1124.48 300.04 1123.44 299.867 1122.4 299.52C1121.36 299.173 1120.5 298.693 1119.8 298.08L1121.8 294.4C1122.31 294.853 1122.88 295.213 1123.52 295.48C1124.16 295.747 1124.82 295.88 1125.48 295.88C1126.39 295.88 1127.12 295.653 1127.68 295.2C1128.24 294.747 1128.76 293.987 1129.24 292.92L1130.48 290.12L1130.88 289.52L1138.96 270.64H1143.76L1133.76 293.72C1133.1 295.32 1132.35 296.587 1131.52 297.52C1130.72 298.453 1129.82 299.107 1128.8 299.48C1127.82 299.853 1126.72 300.04 1125.52 300.04ZM1129.92 292.76L1120.28 270.64H1125.48L1133.32 289.08L1129.92 292.76Z" fill="#282828"/>
</svg>
